<svg id="svg" xmlns="http://www.w3.org/2000/svg" viewBox="0, 0, 400,400"><g id="svgg"><path  d="M68.359 1.486 C 43.848 7.631,26.358 26.248,21.433 51.436 C 19.756 60.015,19.756 339.985,21.433 348.564 C 25.710 370.440,39.336 387.318,59.375 395.561 C 69.581 399.759,71.922 399.976,107.258 399.988 C 143.008 400.001,142.919 400.012,147.424 395.183 C 154.505 387.591,152.182 375.046,142.805 370.236 C 140.122 368.861,137.877 368.748,112.726 368.724 C 97.778 368.710,83.177 368.393,80.280 368.020 C 66.609 366.257,55.601 356.133,53.137 343.057 C 52.044 337.260,52.044 62.740,53.137 56.943 C 55.601 43.867,66.609 33.743,80.280 31.980 C 87.154 31.094,271.440 31.094,278.314 31.980 C 291.985 33.743,302.993 43.867,305.457 56.943 C 305.942 59.516,306.250 80.772,306.250 111.660 L 306.250 162.169 308.008 165.609 C 314.206 177.742,331.847 177.168,337.072 164.663 C 338.811 160.502,338.889 60.275,337.160 51.436 C 332.136 25.738,314.165 6.935,289.203 1.257 C 280.397 -0.746,76.418 -0.534,68.359 1.486 M91.797 94.979 C 81.044 100.571,79.772 114.614,89.330 122.220 L 92.332 124.609 178.209 124.815 C 261.505 125.014,264.173 124.975,267.003 123.524 C 278.716 117.517,278.727 101.239,267.023 95.236 C 262.941 93.143,95.799 92.897,91.797 94.979 M91.797 157.479 C 81.044 163.071,79.772 177.114,89.330 184.720 L 92.332 187.109 178.209 187.315 C 261.505 187.514,264.173 187.475,267.003 186.024 C 278.716 180.017,278.727 163.739,267.023 157.736 C 262.941 155.643,95.799 155.397,91.797 157.479 M320.398 213.690 C 307.430 217.317,305.481 218.984,254.950 269.663 L 210.290 314.453 207.527 323.438 C 190.927 377.400,190.392 379.300,190.313 384.500 C 190.177 393.510,196.501 399.970,205.469 399.979 C 209.974 399.983,271.410 383.474,276.699 380.837 C 283.437 377.478,370.692 288.292,374.130 281.250 C 387.022 254.841,375.129 224.342,348.221 214.814 C 341.807 212.543,326.685 211.932,320.398 213.690 M91.797 219.970 C 81.039 225.604,79.771 239.614,89.330 247.220 L 92.333 249.609 147.656 249.609 L 202.980 249.609 205.982 247.220 C 214.523 240.424,214.523 228.327,205.983 221.530 L 202.981 219.141 148.561 218.942 C 100.351 218.765,93.873 218.883,91.797 219.970 M338.035 245.362 C 348.137 249.179,350.550 262.898,342.455 270.492 L 340.181 272.625 329.691 262.113 L 319.201 251.602 321.515 249.143 C 325.565 244.838,332.468 243.259,338.035 245.362 M288.853 324.023 L 260.136 352.734 245.186 356.850 C 236.963 359.113,230.151 360.871,230.048 360.756 C 229.945 360.641,231.843 353.953,234.266 345.893 L 238.672 331.239 267.404 302.558 L 296.135 273.877 306.853 284.594 L 317.571 295.312 288.853 324.023 " stroke="none" fill="grey" fill-rule="evenodd"></path></g></svg>