<svg id="svg" xmlns="http://www.w3.org/2000/svg" viewBox="0, 0, 400,400" version="1.1"><g id="svgg"><path id="path0" d="M222.800 15.578 L 222.800 31.200 219.900 31.295 C 218.305 31.347,230.230 31.513,246.400 31.663 C 274.884 31.927,282.201 32.152,281.832 32.749 C 281.735 32.906,282.225 33.077,282.921 33.131 C 283.617 33.184,284.361 33.401,284.573 33.613 C 284.786 33.826,285.475 34.000,286.104 34.000 C 286.764 34.000,287.143 34.169,287.000 34.400 C 286.864 34.620,287.147 34.800,287.629 34.800 C 288.112 34.800,288.797 35.115,289.153 35.500 C 289.509 35.885,290.160 36.261,290.600 36.335 C 291.040 36.409,291.805 36.845,292.300 37.304 C 292.795 37.764,293.200 38.032,293.200 37.900 C 293.200 37.769,293.714 38.143,294.342 38.731 C 296.212 40.483,297.645 41.600,298.021 41.600 C 298.216 41.600,298.271 41.870,298.145 42.200 C 298.018 42.530,298.114 42.800,298.357 42.800 C 298.601 42.800,298.800 43.070,298.800 43.400 C 298.800 43.730,298.935 43.979,299.100 43.953 C 299.952 43.818,300.337 44.093,300.564 45.000 C 300.702 45.550,300.986 46.000,301.195 46.000 C 301.404 46.000,301.471 46.270,301.345 46.600 C 301.218 46.930,301.314 47.200,301.557 47.200 C 301.801 47.200,302.000 47.560,302.000 48.000 C 302.000 48.440,302.264 48.800,302.587 48.800 C 302.971 48.800,303.086 49.031,302.919 49.466 C 302.748 49.913,302.817 50.036,303.132 49.842 C 303.572 49.570,303.786 50.261,303.637 51.470 C 303.605 51.728,303.764 52.054,303.989 52.193 C 304.215 52.333,304.400 52.797,304.400 53.224 C 304.400 53.651,304.580 54.000,304.800 54.000 C 305.020 54.000,305.200 54.864,305.200 55.920 C 305.200 56.976,305.375 58.015,305.589 58.229 C 305.838 58.478,305.991 77.365,306.011 110.309 C 306.037 151.856,306.144 162.000,306.553 162.000 C 306.888 162.000,307.003 162.401,306.888 163.179 C 306.782 163.907,306.999 164.787,307.458 165.481 C 308.807 167.522,309.197 168.190,309.624 169.186 C 309.968 169.990,310.115 170.064,310.417 169.586 C 310.621 169.264,310.791 169.180,310.794 169.400 C 310.798 169.620,311.251 170.323,311.800 170.962 C 312.350 171.601,312.800 171.882,312.800 171.586 C 312.800 171.290,313.369 171.630,314.064 172.341 C 314.939 173.236,315.455 173.505,315.744 173.216 C 316.353 172.607,316.921 172.708,316.663 173.380 C 316.515 173.767,316.633 173.885,317.020 173.737 C 317.339 173.614,317.600 173.684,317.600 173.891 C 317.600 174.398,318.426 174.489,321.800 174.356 C 322.939 174.311,324.131 174.002,324.568 173.638 C 325.276 173.049,325.316 173.053,325.085 173.687 C 324.948 174.065,325.007 174.481,325.217 174.611 C 325.428 174.741,325.600 174.662,325.600 174.436 C 325.600 174.210,325.900 174.140,326.266 174.281 C 326.752 174.467,326.842 174.392,326.600 174.000 C 326.356 173.605,326.449 173.533,326.955 173.727 C 327.387 173.893,327.545 173.834,327.381 173.569 C 327.237 173.336,327.363 173.192,327.660 173.249 C 328.833 173.471,330.895 172.735,330.423 172.263 C 330.081 171.921,329.872 171.957,329.589 172.403 C 329.279 172.895,329.207 172.859,329.181 172.200 C 329.153 171.500,329.090 171.525,328.675 172.400 C 328.306 173.177,328.177 157.496,328.099 102.231 C 328.010 39.926,328.072 30.950,328.590 30.159 C 329.142 29.317,329.107 29.197,328.091 28.426 C 327.245 27.784,327.179 27.644,327.800 27.805 C 328.240 27.919,328.060 27.747,327.400 27.424 C 326.339 26.904,326.323 26.576,327.368 26.775 C 327.570 26.814,327.505 26.567,327.222 26.227 C 326.940 25.887,326.550 25.707,326.355 25.828 C 326.160 25.949,325.978 25.857,325.950 25.624 C 325.923 25.391,325.869 24.975,325.832 24.700 C 325.794 24.425,325.543 24.246,325.273 24.303 C 325.003 24.360,324.604 23.936,324.386 23.362 C 324.155 22.757,323.770 22.403,323.467 22.519 C 323.136 22.646,322.955 22.413,322.973 21.885 C 322.991 21.325,322.671 20.956,322.000 20.765 C 321.450 20.608,321.219 20.462,321.487 20.440 C 321.756 20.418,321.872 20.131,321.746 19.802 C 321.619 19.474,321.355 19.304,321.158 19.426 C 320.961 19.548,320.800 19.356,320.800 19.000 C 320.800 18.644,320.628 18.459,320.417 18.589 C 320.207 18.719,320.088 19.045,320.152 19.313 C 320.216 19.581,320.193 19.664,320.100 19.498 C 320.008 19.331,319.749 19.308,319.526 19.446 C 319.277 19.599,319.290 19.379,319.559 18.877 C 320.015 18.025,319.778 16.800,319.157 16.800 C 318.961 16.800,318.800 17.070,318.800 17.400 C 318.800 17.730,318.485 17.997,318.100 17.994 C 317.496 17.989,317.482 17.930,318.000 17.563 C 318.452 17.244,318.476 17.089,318.100 16.936 C 317.825 16.825,317.598 16.523,317.595 16.267 C 317.592 16.010,316.962 15.393,316.195 14.896 C 315.428 14.399,314.800 13.731,314.800 13.410 C 314.800 12.761,313.447 11.886,313.053 12.281 C 312.914 12.420,312.800 12.233,312.800 11.867 C 312.800 11.500,312.549 11.200,312.243 11.200 C 311.936 11.200,311.581 10.928,311.454 10.596 C 311.327 10.264,311.082 10.016,310.911 10.044 C 309.635 10.253,308.845 9.947,309.081 9.334 C 309.252 8.887,309.183 8.764,308.868 8.958 C 308.611 9.117,308.400 9.090,308.400 8.898 C 308.400 8.706,307.770 8.302,307.000 8.000 C 306.230 7.698,305.600 7.304,305.600 7.125 C 305.600 6.946,305.345 6.800,305.033 6.800 C 304.722 6.800,304.407 6.622,304.333 6.403 C 304.260 6.185,303.705 5.966,303.100 5.916 C 302.495 5.866,302.000 5.716,302.000 5.581 C 302.000 5.447,301.055 4.925,299.900 4.423 C 298.745 3.920,297.487 3.349,297.105 3.154 C 296.723 2.959,296.048 2.800,295.605 2.800 C 295.162 2.800,294.800 2.620,294.800 2.400 C 294.800 2.180,294.268 2.000,293.619 2.000 C 292.969 2.000,292.024 1.835,291.519 1.633 C 290.556 1.248,289.413 0.822,288.400 0.472 C 288.070 0.357,273.175 0.195,255.300 0.110 L 222.800 -0.043 222.800 15.578 M325.496 25.273 C 325.540 25.869,325.432 25.902,324.774 25.491 C 323.806 24.887,323.788 24.571,324.721 24.571 C 325.122 24.571,325.466 24.883,325.496 25.273 M328.800 30.318 C 328.800 30.529,329.091 30.943,329.446 31.238 C 330.005 31.702,330.073 31.673,329.946 31.020 C 329.795 30.243,328.800 29.633,328.800 30.318 M329.200 32.455 C 329.200 32.645,329.650 32.800,330.200 32.800 C 330.750 32.800,331.200 32.731,331.200 32.647 C 331.200 32.562,330.750 32.407,330.200 32.302 C 329.650 32.197,329.200 32.266,329.200 32.455 M332.780 37.800 C 332.424 39.512,332.628 40.376,333.482 40.764 C 334.635 41.290,334.834 39.893,333.700 39.232 C 333.312 39.006,333.223 38.819,333.500 38.812 C 333.775 38.805,334.000 38.609,334.000 38.376 C 334.000 38.143,333.835 38.055,333.634 38.179 C 333.433 38.303,333.177 38.179,333.066 37.902 C 332.954 37.626,332.826 37.580,332.780 37.800 M335.310 44.801 C 335.279 45.211,335.482 45.736,335.760 45.967 C 336.129 46.273,336.267 46.231,336.267 45.811 C 336.267 45.494,336.086 45.347,335.865 45.483 C 335.628 45.630,335.566 45.465,335.715 45.078 C 335.852 44.719,335.830 44.342,335.666 44.241 C 335.501 44.139,335.341 44.391,335.310 44.801 M336.893 50.940 C 336.884 51.979,337.012 52.348,337.285 52.075 C 337.554 51.806,337.558 51.289,337.298 50.535 C 336.911 49.418,336.905 49.424,336.893 50.940 M337.562 55.529 C 337.777 55.930,337.859 56.850,337.746 57.572 C 337.596 58.520,337.670 58.804,338.012 58.593 C 338.344 58.388,338.408 58.545,338.227 59.116 C 338.084 59.565,338.154 60.048,338.383 60.189 C 338.657 60.359,338.729 59.859,338.595 58.723 C 338.269 55.952,337.963 54.800,337.554 54.800 C 337.314 54.800,337.317 55.071,337.562 55.529 M337.793 61.611 C 337.649 61.844,337.726 62.270,337.964 62.557 C 338.268 62.923,338.428 77.261,338.502 110.639 L 338.606 158.200 338.697 109.920 C 338.781 65.139,338.688 60.163,337.793 61.611 M229.600 93.581 C 229.600 93.840,228.301 94.000,226.200 94.000 L 222.800 94.000 222.800 109.339 L 222.800 124.678 227.062 124.939 C 233.432 125.329,264.400 125.255,264.400 124.850 C 264.400 124.658,264.818 124.500,265.329 124.500 C 265.840 124.500,267.006 124.028,267.921 123.450 C 268.836 122.873,269.660 122.400,269.752 122.400 C 270.075 122.400,272.601 119.663,272.714 119.190 C 272.777 118.929,273.094 118.449,273.418 118.125 C 273.742 117.801,273.905 117.370,273.780 117.168 C 273.655 116.965,273.743 116.800,273.976 116.800 C 274.209 116.800,274.400 116.440,274.400 116.000 C 274.400 115.560,274.560 115.200,274.756 115.200 C 275.215 115.200,275.615 112.999,275.863 109.100 C 275.995 107.031,275.918 106.000,275.630 106.000 C 275.394 106.000,275.200 105.460,275.200 104.800 C 275.200 104.140,275.020 103.600,274.800 103.600 C 274.580 103.600,274.400 103.328,274.400 102.995 C 274.400 102.297,273.588 100.738,273.000 100.306 C 272.780 100.144,272.742 100.009,272.916 100.006 C 273.089 100.003,272.864 99.606,272.416 99.125 C 271.967 98.643,271.600 98.133,271.600 97.991 C 271.600 97.434,267.044 94.636,265.079 93.986 C 262.589 93.163,229.600 92.787,229.600 93.581 M222.709 171.793 L 222.818 187.585 213.309 187.703 C 208.079 187.767,217.264 187.856,233.721 187.900 C 250.178 187.944,263.948 187.831,264.321 187.647 C 264.694 187.464,265.540 187.042,266.200 186.710 C 266.860 186.378,267.650 186.196,267.956 186.305 C 268.295 186.427,268.403 186.328,268.232 186.052 C 267.987 185.656,268.217 185.533,269.030 185.626 C 269.157 185.641,269.583 185.281,269.977 184.826 C 270.371 184.372,270.908 184.000,271.171 184.000 C 271.433 184.000,271.536 183.820,271.400 183.600 C 271.264 183.380,271.305 183.200,271.492 183.200 C 271.974 183.200,274.400 179.097,274.400 178.281 C 274.400 177.906,274.580 177.600,274.800 177.600 C 275.020 177.600,275.200 177.060,275.200 176.400 C 275.200 175.740,275.380 175.200,275.600 175.200 C 275.833 175.200,276.000 173.867,276.000 172.000 C 276.000 170.133,275.833 168.800,275.600 168.800 C 275.380 168.800,275.200 168.285,275.200 167.656 C 275.200 165.760,271.667 159.607,270.531 159.523 C 269.819 159.470,269.213 159.102,269.384 158.826 C 269.483 158.666,268.942 158.291,268.182 157.993 C 267.422 157.695,266.800 157.304,266.800 157.125 C 266.800 156.946,266.271 156.800,265.624 156.800 C 264.977 156.800,264.336 156.620,264.200 156.400 C 264.040 156.142,256.629 156.000,243.276 156.000 L 222.600 156.000 222.709 171.793 M337.762 160.446 C 337.013 161.279,337.013 161.291,337.762 161.146 C 338.181 161.066,338.570 160.685,338.627 160.300 C 338.757 159.408,338.686 159.420,337.762 160.446 M336.414 165.574 C 335.908 166.520,335.874 167.325,336.352 167.030 C 336.686 166.824,337.236 164.800,336.959 164.800 C 336.887 164.800,336.642 165.148,336.414 165.574 M332.928 169.758 C 333.142 170.313,333.060 170.432,332.588 170.251 C 332.155 170.085,332.003 170.222,332.084 170.706 C 332.148 171.088,332.005 171.365,331.767 171.322 C 331.528 171.279,331.333 171.509,331.333 171.833 C 331.333 172.238,331.717 172.076,332.565 171.311 C 333.242 170.700,333.824 170.200,333.858 170.200 C 333.892 170.200,333.633 169.936,333.284 169.613 C 332.718 169.091,332.679 169.107,332.928 169.758 M324.229 212.629 C 323.883 212.974,323.600 213.147,323.600 213.013 C 323.600 212.878,323.349 213.001,323.042 213.284 C 322.735 213.568,322.566 213.935,322.666 214.100 C 322.765 214.265,322.644 214.400,322.397 214.400 C 322.128 214.400,322.049 214.077,322.200 213.600 C 322.383 213.024,322.272 212.800,321.803 212.800 C 321.446 212.800,321.247 212.953,321.363 213.140 C 321.478 213.327,321.129 213.717,320.586 214.007 C 320.044 214.298,319.600 214.695,319.600 214.891 C 319.600 215.087,319.401 215.124,319.157 214.974 C 318.839 214.777,318.849 214.617,319.191 214.406 C 319.542 214.188,319.518 214.054,319.097 213.893 C 318.784 213.772,318.274 213.835,317.964 214.031 C 317.584 214.271,317.559 214.390,317.887 214.394 C 318.156 214.397,318.271 214.670,318.145 215.000 C 318.018 215.330,317.754 215.600,317.557 215.600 C 317.361 215.600,317.200 215.330,317.200 215.000 C 317.200 214.623,316.820 214.400,316.176 214.400 C 315.613 214.400,315.259 214.572,315.389 214.783 C 315.519 214.993,315.890 215.064,316.213 214.940 C 316.536 214.816,316.800 214.882,316.800 215.086 C 316.800 215.290,316.089 215.431,315.220 215.399 C 314.350 215.366,313.731 215.488,313.843 215.670 C 314.041 215.990,313.475 216.152,312.546 216.040 C 312.296 216.010,311.982 216.270,311.848 216.618 C 311.715 216.966,311.424 217.139,311.203 217.002 C 310.981 216.865,310.800 216.973,310.800 217.243 C 310.800 217.513,310.681 217.614,310.535 217.469 C 310.390 217.323,309.682 217.653,308.962 218.202 C 308.242 218.751,307.383 219.200,307.054 219.200 C 306.724 219.200,306.339 219.563,306.198 220.006 C 306.057 220.449,305.796 220.721,305.617 220.610 C 305.437 220.499,305.068 220.677,304.796 221.004 C 304.524 221.332,304.131 221.600,303.922 221.600 C 303.714 221.600,303.305 221.825,303.015 222.100 C 302.724 222.375,301.719 223.230,300.781 224.000 C 297.918 226.351,296.800 227.464,296.800 227.967 C 296.800 228.231,296.639 228.348,296.443 228.226 C 296.246 228.105,295.667 228.531,295.156 229.173 C 294.645 229.815,294.086 230.253,293.913 230.147 C 293.741 230.040,293.600 230.233,293.600 230.576 C 293.600 230.919,293.409 231.200,293.176 231.200 C 292.943 231.200,292.881 231.408,293.038 231.662 C 293.204 231.930,293.149 232.016,292.907 231.866 C 292.399 231.552,291.488 232.555,291.903 232.970 C 292.067 233.133,291.930 233.207,291.600 233.133 C 291.270 233.060,291.045 233.225,291.100 233.500 C 291.155 233.775,290.990 233.955,290.733 233.900 C 290.476 233.845,290.055 234.204,289.797 234.698 C 289.539 235.191,289.210 235.476,289.064 235.331 C 288.919 235.186,288.800 235.377,288.800 235.757 C 288.800 236.137,288.620 236.336,288.400 236.200 C 288.180 236.064,288.000 236.233,288.000 236.576 C 288.000 236.919,287.775 237.155,287.500 237.100 C 287.225 237.045,287.045 237.225,287.100 237.500 C 287.155 237.775,286.919 238.000,286.576 238.000 C 286.233 238.000,286.064 238.180,286.200 238.400 C 286.336 238.620,286.156 238.800,285.800 238.800 C 285.444 238.800,285.264 238.980,285.400 239.200 C 285.536 239.420,285.485 239.600,285.287 239.600 C 285.089 239.600,283.728 240.775,282.263 242.211 C 280.798 243.648,279.589 244.683,279.575 244.511 C 279.561 244.340,279.382 244.617,279.178 245.126 C 278.974 245.635,278.621 245.936,278.393 245.796 C 278.166 245.655,278.030 245.698,278.090 245.891 C 278.215 246.288,263.262 261.200,262.739 261.200 C 262.552 261.200,262.400 261.470,262.400 261.800 C 262.400 262.130,262.173 262.400,261.896 262.400 C 261.365 262.400,260.170 263.987,260.315 264.500 C 260.362 264.665,260.192 264.800,259.937 264.800 C 259.390 264.800,248.000 276.313,248.000 276.867 C 248.000 277.076,247.820 277.136,247.600 277.000 C 247.380 276.864,247.200 276.943,247.200 277.176 C 247.200 277.409,246.885 277.603,246.500 277.606 C 245.902 277.611,245.887 277.669,246.400 278.000 C 246.911 278.330,246.894 278.389,246.287 278.394 C 245.896 278.397,245.471 278.670,245.345 279.000 C 245.218 279.330,244.819 279.603,244.457 279.606 C 243.887 279.611,243.879 279.663,244.400 280.000 C 244.933 280.345,244.933 280.389,244.400 280.395 C 244.070 280.400,243.027 281.212,242.082 282.202 C 241.137 283.191,240.182 284.000,239.959 284.000 C 239.735 284.000,239.664 284.180,239.800 284.400 C 239.936 284.620,239.737 284.800,239.357 284.800 C 238.977 284.800,238.778 284.911,238.914 285.048 C 239.050 285.184,238.945 285.514,238.681 285.782 C 238.416 286.049,237.850 286.737,237.423 287.310 C 236.996 287.883,236.525 288.277,236.377 288.185 C 236.228 288.094,235.768 288.406,235.353 288.878 C 234.939 289.351,234.825 289.606,235.100 289.445 C 235.375 289.284,235.600 289.300,235.600 289.480 C 235.600 289.909,233.982 290.916,233.718 290.652 C 233.367 290.300,232.491 291.371,232.695 291.903 C 232.908 292.459,232.124 293.600,231.527 293.600 C 231.321 293.600,231.288 293.375,231.453 293.100 C 231.660 292.756,231.544 292.770,231.081 293.145 C 230.711 293.445,230.506 293.848,230.625 294.041 C 230.744 294.233,230.562 294.284,230.221 294.153 C 229.818 293.998,229.600 294.141,229.600 294.557 C 229.600 294.911,229.409 295.200,229.176 295.200 C 228.943 295.200,228.864 295.380,229.000 295.600 C 229.136 295.820,228.922 296.003,228.524 296.006 C 228.009 296.010,227.945 296.104,228.303 296.332 C 228.678 296.570,228.577 296.851,227.903 297.440 C 227.406 297.874,226.716 298.661,226.369 299.188 C 225.884 299.925,225.661 300.023,225.407 299.612 C 225.172 299.231,225.228 299.170,225.600 299.400 C 225.948 299.615,226.027 299.567,225.836 299.259 C 225.676 298.999,225.825 298.689,226.175 298.554 C 226.519 298.422,226.800 298.122,226.800 297.887 C 226.800 297.653,226.358 297.876,225.818 298.383 C 225.277 298.891,224.872 299.507,224.918 299.753 C 224.963 299.999,224.793 300.161,224.541 300.114 C 224.288 300.066,224.163 300.336,224.262 300.716 C 224.361 301.094,224.070 301.804,223.614 302.292 C 222.833 303.132,222.225 394.358,222.996 395.129 C 223.545 395.678,226.495 395.626,226.282 395.071 C 226.126 394.662,226.274 394.547,226.785 394.680 C 227.183 394.784,227.631 394.674,227.778 394.435 C 227.926 394.196,228.262 394.003,228.524 394.006 C 228.810 394.010,228.761 394.167,228.400 394.400 C 227.881 394.735,227.890 394.789,228.467 394.794 C 228.833 394.797,229.193 394.623,229.267 394.406 C 229.340 394.190,230.248 393.981,231.284 393.942 C 232.521 393.896,233.078 393.722,232.907 393.436 C 232.764 393.196,232.986 393.270,233.400 393.600 C 233.839 393.950,234.028 393.991,233.853 393.700 C 233.652 393.365,233.824 393.200,234.376 393.200 C 234.829 393.200,235.200 393.020,235.200 392.800 C 235.200 392.580,235.920 392.400,236.800 392.400 C 237.680 392.400,238.400 392.265,238.401 392.100 C 238.401 391.935,239.060 391.753,239.866 391.695 C 240.671 391.637,241.526 391.444,241.765 391.265 C 242.531 390.693,245.412 390.010,246.321 390.185 C 246.913 390.299,247.200 390.157,247.200 389.750 C 247.200 389.342,247.443 389.223,247.947 389.383 C 248.358 389.514,249.173 389.438,249.759 389.216 C 250.344 388.993,251.346 388.771,251.984 388.722 C 252.622 388.674,253.056 388.491,252.949 388.317 C 252.841 388.143,253.483 388.000,254.376 388.000 C 255.269 388.000,256.000 387.840,256.000 387.645 C 256.000 387.450,256.495 387.197,257.100 387.083 C 259.711 386.588,263.811 385.410,263.933 385.118 C 264.007 384.943,264.671 384.800,265.410 384.800 C 266.148 384.800,266.864 384.620,267.000 384.400 C 267.136 384.180,267.766 384.000,268.400 384.000 C 269.034 384.000,269.664 383.820,269.800 383.600 C 269.936 383.380,270.667 383.200,271.424 383.200 C 272.181 383.200,272.800 383.020,272.800 382.800 C 272.800 382.580,273.155 382.400,273.588 382.400 C 274.300 382.400,275.226 381.968,278.008 380.338 C 279.314 379.572,312.000 346.938,312.000 346.399 C 312.000 346.154,312.167 346.056,312.371 346.182 C 312.575 346.308,312.849 346.094,312.980 345.706 C 313.110 345.318,313.825 344.550,314.569 344.000 C 315.313 343.450,315.839 342.865,315.737 342.700 C 315.636 342.535,315.742 342.400,315.973 342.400 C 316.619 342.400,318.400 340.724,318.163 340.340 C 318.047 340.153,318.223 340.000,318.553 340.000 C 318.883 340.000,319.281 339.792,319.438 339.538 C 319.632 339.225,319.543 339.185,319.162 339.415 C 318.684 339.703,318.682 339.652,319.145 339.081 C 319.445 338.711,319.876 338.524,320.103 338.664 C 320.364 338.825,320.441 338.526,320.312 337.850 C 320.199 337.262,320.291 336.667,320.515 336.529 C 320.749 336.384,320.802 336.474,320.638 336.738 C 320.302 337.283,321.152 337.345,321.958 336.834 C 322.265 336.640,322.406 336.193,322.271 335.840 C 322.136 335.488,322.199 335.200,322.413 335.200 C 322.626 335.200,322.800 335.416,322.800 335.680 C 322.800 336.044,322.920 336.040,323.297 335.663 C 323.692 335.268,323.672 335.082,323.197 334.753 C 322.669 334.387,322.669 334.359,323.200 334.515 C 324.038 334.762,325.200 334.092,325.200 333.362 C 325.200 333.027,325.380 332.864,325.600 333.000 C 326.231 333.390,326.067 332.925,325.300 332.151 C 324.633 331.478,324.633 331.457,325.300 331.710 C 325.728 331.872,326.002 331.785,326.006 331.487 C 326.010 331.179,326.155 331.221,326.400 331.600 C 326.755 332.149,326.978 331.879,326.837 331.070 C 326.806 330.889,326.931 330.834,327.115 330.948 C 327.300 331.062,328.461 330.192,329.696 329.015 C 330.931 327.837,332.039 326.972,332.159 327.092 C 332.279 327.212,332.157 326.837,331.888 326.259 C 331.412 325.233,331.397 325.229,331.262 326.104 C 331.028 327.620,330.386 328.121,329.725 327.304 C 329.203 326.658,329.190 326.670,329.564 327.447 C 330.089 328.538,329.644 328.999,328.939 328.094 C 328.427 327.437,328.411 327.437,328.642 328.100 C 328.778 328.492,328.691 328.800,328.443 328.800 C 328.123 328.800,328.000 319.606,328.000 295.600 C 328.000 274.450,328.141 262.400,328.387 262.400 C 328.601 262.400,328.660 262.100,328.519 261.734 C 328.367 261.338,328.426 261.169,328.665 261.317 C 328.886 261.453,329.067 261.320,329.067 261.021 C 329.067 260.721,328.861 260.555,328.610 260.652 C 327.901 260.924,326.274 259.330,326.640 258.721 C 326.846 258.379,326.701 258.405,326.219 258.797 C 325.536 259.352,325.504 259.324,325.769 258.397 C 325.945 257.776,325.918 257.592,325.697 257.909 C 325.255 258.543,323.771 257.094,324.182 256.430 C 324.334 256.183,324.206 256.099,323.872 256.228 C 323.224 256.477,322.656 255.363,323.075 254.664 C 323.228 254.409,323.045 254.450,322.668 254.757 C 322.070 255.242,322.013 255.231,322.228 254.672 C 322.469 254.042,321.393 253.986,320.434 254.579 C 320.025 254.832,320.072 254.040,320.507 253.345 C 320.841 252.812,319.865 251.868,319.430 252.303 C 319.267 252.467,319.193 252.330,319.267 252.000 C 319.340 251.670,319.205 251.435,318.967 251.478 C 318.728 251.521,318.533 251.296,318.533 250.978 C 318.533 250.660,318.683 250.400,318.867 250.400 C 319.050 250.400,319.155 250.203,319.100 249.962 C 319.045 249.720,319.405 249.366,319.900 249.174 C 321.030 248.737,321.037 248.948,319.929 249.980 C 319.450 250.426,319.167 250.901,319.301 251.034 C 319.663 251.397,322.007 248.676,321.810 248.120 C 321.710 247.836,321.877 247.731,322.220 247.863 C 322.584 248.003,322.800 247.837,322.800 247.419 C 322.800 247.053,322.980 246.864,323.200 247.000 C 323.420 247.136,323.603 247.012,323.606 246.724 C 323.611 246.339,323.725 246.359,324.037 246.800 C 324.372 247.272,324.427 247.173,324.294 246.337 C 324.121 245.249,324.992 245.146,325.694 246.171 C 325.891 246.459,325.990 246.436,325.994 246.100 C 325.997 245.825,326.259 245.600,326.576 245.600 C 326.893 245.600,327.264 245.421,327.399 245.201 C 327.554 244.950,327.230 244.960,326.524 245.229 C 325.405 245.654,325.404 245.653,326.201 244.873 C 326.677 244.407,327.154 244.234,327.380 244.445 C 327.977 245.003,328.800 244.860,328.800 244.200 C 328.800 243.870,328.620 243.600,328.400 243.600 C 327.761 243.600,327.860 213.728,328.500 213.449 C 328.775 213.330,328.505 213.334,327.900 213.459 C 326.976 213.650,326.800 213.552,326.800 212.843 C 326.800 211.741,326.244 211.768,325.651 212.900 L 325.179 213.800 325.352 212.900 C 325.554 211.848,325.115 211.742,324.229 212.629 M329.200 212.290 C 329.530 212.415,329.946 212.765,330.125 213.067 C 330.303 213.369,330.627 213.507,330.844 213.373 C 331.461 212.991,330.426 211.995,329.451 212.032 C 328.861 212.053,328.784 212.133,329.200 212.290 M331.700 212.276 C 332.085 212.376,332.715 212.376,333.100 212.276 C 333.485 212.175,333.170 212.093,332.400 212.093 C 331.630 212.093,331.315 212.175,331.700 212.276 M334.406 212.700 C 334.411 213.215,334.498 213.264,334.738 212.886 C 334.933 212.579,335.359 212.486,335.798 212.654 C 336.305 212.849,336.442 212.791,336.242 212.468 C 335.784 211.727,334.399 211.902,334.406 212.700 M337.817 212.372 C 337.544 212.814,338.175 213.292,338.544 212.922 C 338.925 212.542,338.854 212.000,338.424 212.000 C 338.217 212.000,337.944 212.168,337.817 212.372 M354.258 217.408 C 354.391 217.753,354.595 217.938,354.713 217.821 C 354.830 217.703,355.203 217.830,355.540 218.103 C 356.029 218.499,356.093 218.499,355.855 218.102 C 355.346 217.256,353.970 216.658,354.258 217.408 M331.966 243.759 C 332.201 244.042,332.313 244.353,332.216 244.451 C 332.118 244.549,332.390 244.629,332.819 244.629 C 333.249 244.629,333.600 244.487,333.600 244.314 C 333.600 244.141,333.409 244.000,333.176 244.000 C 332.943 244.000,332.841 243.857,332.949 243.683 C 333.056 243.509,332.783 243.339,332.342 243.306 C 331.731 243.260,331.641 243.368,331.966 243.759 M342.012 247.326 C 341.988 247.978,342.840 249.200,343.314 249.194 C 343.649 249.190,343.665 249.096,343.366 248.894 C 343.127 248.732,342.727 248.240,342.478 247.800 C 342.228 247.360,342.019 247.147,342.012 247.326 M328.976 262.630 C 328.224 263.240,328.229 263.253,329.158 263.052 C 329.821 262.909,329.987 262.973,329.699 263.261 C 329.411 263.549,329.793 264.126,330.941 265.139 C 331.854 265.942,332.660 266.735,332.733 266.900 C 332.807 267.065,333.054 267.200,333.282 267.200 C 333.533 267.200,333.501 266.962,333.200 266.600 C 332.881 266.216,332.856 266.000,333.131 266.000 C 333.367 266.000,333.744 266.315,333.968 266.700 C 334.192 267.085,334.381 267.258,334.388 267.084 C 334.395 266.911,334.651 267.001,334.958 267.284 C 335.265 267.568,335.446 267.915,335.361 268.056 C 335.276 268.197,335.669 268.616,336.235 268.986 C 336.815 269.366,337.171 269.899,337.052 270.209 C 336.915 270.567,337.043 270.681,337.420 270.537 C 337.739 270.414,338.000 270.244,338.000 270.157 C 338.000 269.973,330.060 262.000,329.876 262.000 C 329.809 262.000,329.404 262.283,328.976 262.630 M332.705 265.828 C 332.387 266.146,330.672 264.572,330.569 263.867 C 330.504 263.423,330.865 263.603,331.685 264.423 C 332.352 265.090,332.811 265.722,332.705 265.828 M298.288 276.600 C 299.517 277.810,300.675 278.800,300.862 278.800 C 301.048 278.800,301.200 279.070,301.200 279.400 C 301.200 279.730,301.500 280.000,301.867 280.000 C 302.233 280.000,302.419 280.114,302.279 280.254 C 302.013 280.520,304.667 282.800,305.242 282.800 C 305.425 282.800,305.462 283.115,305.324 283.500 C 305.186 283.885,305.223 284.064,305.406 283.897 C 305.590 283.730,306.046 284.060,306.420 284.630 C 306.793 285.200,307.257 285.696,307.450 285.733 C 307.642 285.770,307.755 285.935,307.700 286.100 C 307.645 286.265,307.793 286.400,308.029 286.400 C 308.264 286.400,308.727 286.670,309.057 287.000 C 309.387 287.330,309.581 287.600,309.487 287.600 C 309.394 287.600,310.388 288.680,311.696 290.000 C 313.003 291.320,314.247 292.400,314.460 292.400 C 314.673 292.400,314.759 292.542,314.652 292.716 C 314.545 292.890,314.984 293.385,315.627 293.816 C 316.979 294.722,317.146 295.974,316.021 296.785 C 315.593 297.093,315.334 297.493,315.445 297.673 C 315.556 297.853,315.266 298.000,314.800 298.000 C 314.334 298.000,314.064 298.180,314.200 298.400 C 314.336 298.620,314.246 298.800,314.000 298.800 C 313.754 298.800,313.664 298.980,313.800 299.200 C 313.936 299.420,313.756 299.600,313.400 299.600 C 313.044 299.600,312.864 299.780,313.000 300.000 C 313.136 300.220,313.044 300.400,312.795 300.400 C 312.244 300.400,311.580 301.044,310.627 302.500 C 310.232 303.105,309.648 303.600,309.330 303.600 C 309.013 303.600,308.864 303.780,309.000 304.000 C 309.136 304.220,308.967 304.400,308.624 304.400 C 308.281 304.400,308.000 304.670,308.000 305.000 C 308.000 305.330,307.865 305.600,307.700 305.601 C 307.186 305.602,300.994 311.629,301.100 312.025 C 301.155 312.231,300.975 312.355,300.700 312.300 C 300.425 312.245,300.245 312.425,300.300 312.700 C 300.355 312.975,300.226 313.200,300.014 313.200 C 299.396 313.200,297.226 315.490,297.527 315.824 C 297.677 315.991,297.485 316.014,297.100 315.876 C 296.715 315.738,296.400 315.795,296.400 316.003 C 296.400 316.211,295.410 317.420,294.200 318.689 C 292.990 319.958,292.000 321.143,292.000 321.322 C 292.000 321.501,291.845 321.551,291.655 321.434 C 291.262 321.191,288.000 324.531,288.000 325.177 C 288.000 325.409,287.858 325.600,287.683 325.600 C 287.509 325.600,286.699 326.230,285.882 327.000 C 285.066 327.770,284.334 328.400,284.256 328.400 C 284.178 328.400,282.063 330.492,279.557 333.050 C 271.151 341.628,267.889 344.800,267.477 344.800 C 267.251 344.800,267.156 344.889,267.266 344.999 C 267.446 345.179,262.065 350.800,261.712 350.800 C 261.629 350.800,261.165 351.224,260.681 351.743 C 259.863 352.619,259.144 352.867,255.700 353.463 C 254.985 353.586,254.400 353.848,254.400 354.044 C 254.400 354.240,253.860 354.400,253.200 354.400 C 252.540 354.400,252.000 354.542,252.000 354.715 C 252.000 354.888,251.418 355.074,250.707 355.128 C 249.995 355.183,249.239 355.401,249.027 355.613 C 248.814 355.826,248.057 356.000,247.344 356.000 C 246.631 356.000,245.936 356.180,245.800 356.400 C 245.664 356.620,245.023 356.800,244.376 356.800 C 243.729 356.800,243.200 356.980,243.200 357.200 C 243.200 357.420,242.882 357.600,242.494 357.600 C 242.106 357.600,240.845 357.945,239.691 358.367 C 238.445 358.822,237.708 358.944,237.874 358.667 C 238.029 358.408,237.855 358.443,237.482 358.745 C 237.112 359.044,236.538 359.185,236.205 359.057 C 235.872 358.930,235.600 358.960,235.600 359.125 C 235.600 359.290,235.140 359.464,234.579 359.510 C 234.017 359.557,233.233 359.768,232.836 359.981 C 232.439 360.193,231.458 360.411,230.657 360.465 C 229.856 360.519,229.200 360.737,229.200 360.948 C 229.200 361.160,229.096 361.229,228.968 361.101 C 228.665 360.798,230.004 358.755,230.361 358.976 C 230.511 359.069,230.662 358.768,230.697 358.308 C 230.732 357.848,230.994 357.324,231.280 357.142 C 231.699 356.876,231.693 356.811,231.251 356.806 C 230.816 356.801,230.802 356.679,231.185 356.218 C 231.451 355.897,231.562 355.462,231.431 355.250 C 231.300 355.038,231.436 354.621,231.733 354.324 C 232.031 354.027,232.227 353.461,232.169 353.067 C 232.111 352.673,232.334 352.247,232.665 352.120 C 233.155 351.932,233.167 351.825,232.734 351.550 C 232.334 351.297,232.326 351.211,232.700 351.206 C 232.975 351.203,233.200 351.009,233.200 350.776 C 233.200 350.543,232.992 350.481,232.738 350.638 C 232.253 350.938,232.534 350.302,233.350 349.254 C 233.583 348.953,233.798 348.261,233.828 347.714 C 233.857 347.168,234.107 346.581,234.383 346.410 C 234.677 346.229,234.779 345.764,234.629 345.292 C 234.472 344.798,234.616 344.241,235.001 343.856 C 235.346 343.511,235.622 343.132,235.614 343.014 C 235.519 341.591,235.671 340.797,236.000 341.000 C 236.223 341.138,236.400 340.831,236.400 340.304 C 236.400 339.785,236.554 339.189,236.743 338.980 C 236.932 338.771,237.316 337.479,237.596 336.109 C 237.876 334.739,238.261 333.714,238.452 333.832 C 238.643 333.950,238.771 333.721,238.736 333.323 C 238.607 331.832,238.823 331.247,239.592 331.003 C 240.027 330.864,240.342 330.626,240.292 330.472 C 240.198 330.188,253.317 316.983,255.607 315.056 C 256.297 314.475,256.746 314.000,256.604 314.000 C 256.462 314.000,257.971 312.380,259.957 310.400 C 261.942 308.420,263.754 306.800,263.983 306.800 C 264.213 306.800,264.400 306.530,264.400 306.200 C 264.400 305.870,264.540 305.600,264.710 305.600 C 265.098 305.600,269.711 301.141,271.654 298.887 C 272.454 297.959,273.339 297.200,273.621 297.200 C 273.903 297.200,274.039 297.106,273.924 296.991 C 273.760 296.826,295.437 274.611,295.926 274.443 C 295.995 274.419,297.058 275.390,298.288 276.600 M218.918 304.979 C 218.535 305.415,218.573 305.581,219.106 305.785 C 219.474 305.927,219.648 305.914,219.491 305.758 C 219.335 305.602,219.407 305.232,219.652 304.937 C 220.240 304.229,219.542 304.269,218.918 304.979 M347.900 310.367 C 346.377 311.889,346.515 312.216,348.077 310.788 C 348.780 310.146,349.275 309.542,349.177 309.444 C 349.080 309.346,348.505 309.762,347.900 310.367 M332.979 324.689 C 333.082 324.959,332.861 325.350,332.487 325.559 C 332.113 325.769,331.915 326.049,332.048 326.182 C 332.181 326.315,332.853 325.897,333.542 325.254 L 334.794 324.085 333.793 324.143 C 333.183 324.178,332.865 324.391,332.979 324.689 M222.110 396.550 C 221.423 397.359,221.424 397.367,222.156 396.798 C 222.571 396.474,223.336 396.265,223.856 396.333 C 225.109 396.498,225.072 396.145,223.810 395.904 C 223.134 395.775,222.595 395.980,222.110 396.550 " stroke="none" fill="#45b4fc" fill-rule="evenodd"></path><path id="path1" d="M66.257 1.805 C 66.429 2.253,66.296 2.346,65.745 2.167 C 65.128 1.966,65.104 1.999,65.600 2.356 C 66.128 2.736,66.124 2.788,65.567 2.794 C 65.218 2.797,64.808 2.675,64.655 2.522 C 64.138 2.004,63.133 2.048,63.337 2.579 C 63.476 2.941,63.187 3.067,62.375 2.998 C 61.736 2.944,61.311 3.057,61.431 3.250 C 61.645 3.596,61.472 3.660,60.100 3.742 C 59.715 3.765,59.051 4.103,58.625 4.492 C 57.927 5.129,57.150 5.382,56.300 5.247 C 56.135 5.221,56.000 5.380,56.000 5.600 C 56.000 5.820,55.640 6.000,55.200 6.000 C 54.760 6.000,54.400 6.180,54.400 6.400 C 54.400 6.620,54.040 6.800,53.600 6.800 C 53.160 6.800,52.799 6.935,52.797 7.100 C 52.793 7.458,50.857 8.400,50.124 8.400 C 49.839 8.400,49.393 8.742,49.132 9.160 C 48.871 9.578,48.438 9.836,48.169 9.733 C 47.901 9.630,47.545 9.766,47.379 10.035 C 47.173 10.368,47.243 10.421,47.600 10.200 C 47.949 9.984,48.027 10.033,47.834 10.345 C 47.675 10.602,47.365 10.702,47.144 10.566 C 46.924 10.430,46.190 10.922,45.513 11.659 C 44.836 12.397,44.417 12.762,44.583 12.470 C 44.832 12.031,44.739 12.031,44.037 12.469 C 43.572 12.760,43.091 13.313,42.969 13.699 C 42.846 14.085,42.533 14.400,42.273 14.400 C 42.013 14.401,41.277 14.851,40.638 15.400 C 39.959 15.984,39.709 16.404,40.038 16.409 C 40.347 16.414,40.015 16.707,39.300 17.059 C 38.585 17.412,38.000 17.977,38.000 18.317 C 38.000 18.656,37.883 18.817,37.740 18.674 C 37.466 18.399,35.601 20.366,35.600 20.931 C 35.600 21.114,34.880 21.954,34.000 22.800 C 33.120 23.646,32.400 24.438,32.400 24.561 C 32.400 24.683,31.690 25.721,30.823 26.867 C 29.956 28.013,29.316 29.065,29.403 29.204 C 29.489 29.343,29.208 29.758,28.780 30.125 C 28.351 30.492,28.000 31.051,28.000 31.368 C 28.000 31.684,27.744 32.199,27.431 32.512 C 27.118 32.824,26.803 33.422,26.731 33.840 C 26.659 34.258,26.496 34.690,26.369 34.800 C 25.828 35.268,24.800 37.797,24.800 38.661 C 24.800 39.178,24.620 39.600,24.400 39.600 C 24.180 39.600,24.000 40.140,24.000 40.800 C 24.000 41.460,23.820 42.000,23.600 42.000 C 23.380 42.000,23.200 42.450,23.200 43.000 C 23.200 43.550,23.020 44.000,22.800 44.000 C 22.580 44.000,22.400 44.709,22.400 45.576 C 22.400 46.443,22.220 47.264,22.000 47.400 C 21.780 47.536,21.600 48.267,21.600 49.024 C 21.600 49.781,21.420 50.400,21.200 50.400 C 20.978 50.400,20.800 51.459,20.800 52.776 C 20.800 54.083,20.620 55.264,20.400 55.400 C 19.845 55.743,19.845 344.257,20.400 344.600 C 20.620 344.736,20.800 345.917,20.800 347.224 C 20.800 348.541,20.978 349.600,21.200 349.600 C 21.420 349.600,21.600 350.219,21.600 350.976 C 21.600 351.733,21.780 352.464,22.000 352.600 C 22.220 352.736,22.400 353.557,22.400 354.424 C 22.400 355.291,22.580 356.000,22.800 356.000 C 23.020 356.000,23.200 356.450,23.200 357.000 C 23.200 357.550,23.380 358.000,23.600 358.000 C 23.820 358.000,24.000 358.540,24.000 359.200 C 24.000 359.860,24.180 360.400,24.400 360.400 C 24.620 360.400,24.800 360.822,24.800 361.339 C 24.800 362.203,25.828 364.732,26.369 365.200 C 26.496 365.310,26.659 365.742,26.731 366.160 C 26.803 366.578,27.118 367.176,27.431 367.488 C 27.744 367.801,28.000 368.316,28.000 368.632 C 28.000 368.949,28.351 369.508,28.780 369.875 C 29.208 370.242,29.489 370.657,29.403 370.796 C 29.316 370.935,29.956 371.987,30.823 373.133 C 31.690 374.279,32.400 375.317,32.400 375.439 C 32.400 375.562,33.120 376.354,34.000 377.200 C 34.880 378.046,35.600 378.886,35.600 379.069 C 35.601 379.634,37.466 381.601,37.740 381.326 C 37.883 381.183,38.000 381.344,38.000 381.683 C 38.000 382.023,38.585 382.588,39.300 382.941 C 40.015 383.293,40.347 383.586,40.038 383.591 C 39.709 383.596,39.959 384.016,40.638 384.600 C 41.277 385.149,42.013 385.599,42.273 385.600 C 42.533 385.600,42.846 385.915,42.969 386.301 C 43.091 386.687,43.572 387.240,44.037 387.531 C 44.739 387.969,44.832 387.969,44.583 387.530 C 44.417 387.238,44.836 387.603,45.513 388.341 C 46.190 389.078,46.924 389.570,47.144 389.434 C 47.365 389.298,47.675 389.398,47.834 389.655 C 48.027 389.967,47.949 390.016,47.600 389.800 C 47.243 389.579,47.173 389.632,47.379 389.965 C 47.545 390.234,47.901 390.370,48.169 390.267 C 48.438 390.164,48.871 390.422,49.132 390.840 C 49.393 391.258,49.839 391.600,50.124 391.600 C 50.857 391.600,52.793 392.542,52.797 392.900 C 52.799 393.065,53.160 393.200,53.600 393.200 C 54.040 393.200,54.400 393.380,54.400 393.600 C 54.400 393.820,54.760 394.000,55.200 394.000 C 55.640 394.000,56.000 394.180,56.000 394.400 C 56.000 394.620,56.135 394.779,56.300 394.753 C 57.150 394.618,57.927 394.871,58.625 395.508 C 59.051 395.897,59.715 396.235,60.100 396.258 C 61.472 396.340,61.645 396.404,61.431 396.750 C 61.311 396.943,61.736 397.056,62.375 397.002 C 63.187 396.933,63.476 397.059,63.337 397.421 C 63.133 397.952,64.138 397.996,64.655 397.478 C 64.808 397.325,65.218 397.203,65.567 397.206 C 66.124 397.212,66.128 397.264,65.600 397.644 C 65.104 398.001,65.128 398.034,65.745 397.833 C 66.296 397.654,66.429 397.747,66.257 398.195 C 66.099 398.609,66.274 398.800,66.813 398.800 C 67.246 398.800,67.600 398.717,67.600 398.616 C 67.600 398.180,65.795 396.800,65.225 396.800 C 64.668 396.800,64.600 394.904,64.600 379.400 C 64.600 369.830,64.735 362.000,64.900 362.000 C 65.065 362.000,65.200 361.801,65.200 361.557 C 65.200 361.314,64.939 361.214,64.620 361.337 C 64.233 361.485,64.115 361.367,64.263 360.980 C 64.386 360.661,64.314 360.400,64.104 360.400 C 63.894 360.400,63.300 360.034,62.785 359.587 C 62.269 359.139,61.632 358.856,61.369 358.957 C 61.082 359.067,60.958 358.872,61.059 358.470 C 61.163 358.058,60.794 357.513,60.097 357.052 C 59.032 356.349,56.603 353.184,57.601 353.801 C 57.857 353.959,57.757 353.483,57.379 352.744 C 57.001 352.005,56.442 351.254,56.137 351.075 C 55.833 350.897,55.700 350.562,55.843 350.331 C 55.986 350.100,55.904 349.788,55.661 349.638 C 55.419 349.488,55.164 349.013,55.096 348.583 C 55.027 348.152,54.699 347.260,54.367 346.600 C 54.034 345.940,53.715 344.410,53.657 343.200 C 53.599 341.990,53.338 340.820,53.076 340.600 C 52.384 340.018,52.384 59.982,53.076 59.400 C 53.338 59.180,53.599 58.010,53.657 56.800 C 53.715 55.590,54.034 54.060,54.367 53.400 C 54.699 52.740,55.027 51.848,55.096 51.417 C 55.164 50.987,55.419 50.512,55.661 50.362 C 55.904 50.212,55.986 49.900,55.843 49.669 C 55.700 49.438,55.833 49.103,56.137 48.925 C 56.442 48.746,57.001 47.995,57.379 47.256 C 57.757 46.517,57.857 46.041,57.601 46.199 C 56.603 46.816,59.032 43.651,60.097 42.948 C 60.794 42.487,61.163 41.942,61.059 41.530 C 60.958 41.128,61.082 40.933,61.369 41.043 C 61.632 41.144,62.269 40.861,62.785 40.413 C 63.300 39.966,63.894 39.600,64.104 39.600 C 64.314 39.600,64.386 39.339,64.263 39.020 C 64.115 38.633,64.233 38.515,64.620 38.663 C 64.939 38.786,65.200 38.686,65.200 38.443 C 65.200 38.199,65.065 38.000,64.900 38.000 C 64.735 38.000,64.600 30.170,64.600 20.600 C 64.600 5.096,64.668 3.200,65.225 3.200 C 65.795 3.200,67.600 1.820,67.600 1.384 C 67.600 1.283,67.246 1.200,66.813 1.200 C 66.274 1.200,66.099 1.391,66.257 1.805 M71.219 34.380 C 70.900 34.582,70.467 34.641,70.257 34.512 C 70.048 34.382,69.994 34.467,70.139 34.701 C 70.424 35.162,71.879 34.919,72.230 34.352 C 72.512 33.896,71.960 33.911,71.219 34.380 M68.066 35.550 C 67.641 35.820,67.667 35.940,68.196 36.143 C 68.564 36.284,69.127 36.131,69.458 35.799 C 70.153 35.105,69.074 34.912,68.066 35.550 M65.176 36.846 C 64.925 37.315,64.985 37.585,65.374 37.735 C 65.682 37.853,66.032 37.694,66.152 37.381 C 66.274 37.062,66.641 36.918,66.989 37.051 C 67.409 37.212,67.540 37.109,67.395 36.730 C 67.096 35.953,65.612 36.030,65.176 36.846 M82.400 105.800 C 82.400 106.130,82.580 106.400,82.800 106.400 C 83.020 106.400,83.200 106.130,83.200 105.800 C 83.200 105.470,83.020 105.200,82.800 105.200 C 82.580 105.200,82.400 105.470,82.400 105.800 M295.178 228.700 L 293.800 230.200 295.300 228.822 C 296.696 227.538,296.984 227.200,296.678 227.200 C 296.612 227.200,295.937 227.875,295.178 228.700 M82.692 230.242 C 82.531 230.402,82.400 230.809,82.400 231.147 C 82.400 231.597,82.518 231.642,82.845 231.315 C 83.090 231.070,83.221 230.663,83.137 230.410 C 83.052 230.157,82.852 230.081,82.692 230.242 M309.600 349.400 C 307.961 351.050,306.710 352.400,306.820 352.400 C 306.930 352.400,308.361 351.050,310.000 349.400 C 311.639 347.750,312.890 346.400,312.780 346.400 C 312.670 346.400,311.239 347.750,309.600 349.400 M296.185 362.900 L 294.200 365.000 296.300 363.015 C 298.251 361.171,298.583 360.800,298.285 360.800 C 298.222 360.800,297.277 361.745,296.185 362.900 M65.315 362.329 C 64.650 362.740,65.345 363.730,66.351 363.804 C 66.800 363.837,67.266 363.604,67.388 363.287 C 67.537 362.899,67.416 362.785,67.015 362.939 C 66.688 363.064,66.279 362.912,66.105 362.602 C 65.931 362.291,65.576 362.168,65.315 362.329 M68.066 363.950 C 67.641 364.220,67.668 364.340,68.199 364.544 C 69.253 364.949,69.593 364.847,69.345 364.200 C 69.083 363.518,68.827 363.468,68.066 363.950 M70.136 365.338 C 69.991 365.592,70.014 365.671,70.188 365.514 C 70.363 365.357,70.842 365.408,71.253 365.628 C 71.683 365.859,72.000 365.872,72.000 365.661 C 72.000 365.090,70.433 364.818,70.136 365.338 " stroke="none" fill="#08ebfc" fill-rule="evenodd"></path><path id="path2" d="M89.200 15.548 L 89.200 31.095 90.700 31.343 C 93.266 31.767,106.875 31.645,106.600 31.200 C 106.464 30.980,106.543 30.800,106.776 30.800 C 107.067 30.800,107.200 25.972,107.200 15.400 L 107.200 0.000 98.200 0.000 L 89.200 0.000 89.200 15.548 M95.200 93.446 C 92.318 94.467,89.946 95.675,89.733 96.230 C 89.613 96.544,89.301 96.800,89.041 96.800 C 88.404 96.800,85.548 99.520,85.934 99.759 C 86.101 99.863,86.500 99.782,86.819 99.580 C 87.139 99.378,87.241 99.209,87.046 99.206 C 86.851 99.203,87.150 98.840,87.709 98.400 C 88.269 97.960,88.822 97.600,88.940 97.600 C 89.351 97.600,89.235 120.331,88.822 120.586 C 88.603 120.722,88.026 120.375,87.539 119.816 C 86.640 118.782,85.600 118.461,85.600 119.218 C 85.600 119.447,85.915 119.582,86.300 119.518 C 86.761 119.440,86.981 119.640,86.944 120.104 C 86.913 120.491,87.413 121.182,88.056 121.640 C 88.698 122.097,89.197 122.320,89.165 122.136 C 89.016 121.294,89.239 120.777,89.643 121.026 C 89.961 121.223,89.963 121.376,89.649 121.570 C 89.004 121.969,90.268 123.600,91.223 123.600 C 91.650 123.600,92.000 123.780,92.000 124.000 C 92.000 124.220,92.349 124.400,92.776 124.400 C 93.203 124.400,93.655 124.565,93.779 124.767 C 93.904 124.969,97.020 125.154,100.703 125.180 L 107.400 125.226 107.291 109.634 L 107.182 94.042 109.291 93.895 C 110.451 93.814,108.408 93.715,104.750 93.674 C 101.093 93.633,97.583 93.518,96.950 93.417 C 96.317 93.316,95.530 93.329,95.200 93.446 M82.800 106.763 C 83.207 107.051,83.239 107.190,82.900 107.194 C 82.625 107.197,82.400 107.485,82.400 107.833 C 82.400 108.182,82.625 108.392,82.900 108.300 C 83.601 108.066,83.525 106.701,82.800 106.503 C 82.267 106.357,82.267 106.386,82.800 106.763 M82.492 110.875 C 82.579 111.136,82.864 111.421,83.125 111.508 C 83.418 111.606,83.507 111.423,83.357 111.033 C 83.078 110.306,82.252 110.155,82.492 110.875 M82.786 112.774 C 83.014 113.199,83.200 113.919,83.200 114.374 C 83.200 114.828,83.367 115.200,83.571 115.200 C 83.775 115.200,84.024 115.515,84.126 115.900 C 84.228 116.285,84.292 116.105,84.268 115.500 C 84.245 114.895,84.099 114.400,83.945 114.400 C 83.790 114.400,83.545 113.860,83.400 113.200 C 83.255 112.540,82.964 112.000,82.754 112.000 C 82.522 112.000,82.535 112.304,82.786 112.774 M94.302 156.493 C 94.212 156.764,93.657 156.946,93.069 156.897 C 92.481 156.849,92.000 156.987,92.000 157.204 C 92.000 157.422,91.619 157.600,91.153 157.600 C 90.509 157.600,90.356 157.788,90.512 158.385 C 90.749 159.292,89.589 160.553,89.302 159.700 C 89.209 159.425,88.868 159.200,88.544 159.200 C 88.035 159.200,88.039 159.321,88.577 160.089 C 89.327 161.160,89.530 183.349,88.793 183.804 C 88.188 184.178,88.730 184.800,89.661 184.800 C 90.109 184.800,90.559 185.122,90.662 185.515 C 90.772 185.937,91.698 186.540,92.924 186.989 C 94.972 187.737,95.805 187.789,103.700 187.658 L 107.200 187.600 107.200 172.056 L 107.200 156.511 105.100 156.259 C 101.303 155.803,94.483 155.951,94.302 156.493 M86.896 160.795 C 86.623 161.232,86.400 161.802,86.400 162.061 C 86.400 162.663,86.994 162.092,87.018 161.467 C 87.028 161.210,87.253 161.045,87.518 161.100 C 87.783 161.155,88.000 160.930,88.000 160.600 C 88.000 159.762,87.485 159.852,86.896 160.795 M82.542 169.798 C 82.511 170.346,82.646 170.695,82.842 170.574 C 83.275 170.307,83.323 168.800,82.900 168.800 C 82.735 168.800,82.574 169.249,82.542 169.798 M82.400 173.400 C 82.400 173.730,82.625 174.003,82.900 174.006 C 83.268 174.011,83.257 174.103,82.857 174.356 C 82.507 174.578,82.462 174.791,82.730 174.957 C 83.312 175.317,83.603 174.698,83.334 173.669 C 83.076 172.684,82.400 172.488,82.400 173.400 M85.588 181.578 C 86.150 182.627,86.684 182.911,87.034 182.345 C 87.215 182.052,87.150 181.984,86.862 182.162 C 86.570 182.342,86.400 182.144,86.400 181.624 C 86.400 181.150,86.139 180.800,85.786 180.800 C 85.302 180.800,85.260 180.964,85.588 181.578 M87.439 183.094 C 87.010 183.523,87.187 184.000,87.776 184.000 C 88.093 184.000,88.452 183.839,88.574 183.642 C 88.829 183.230,87.800 182.734,87.439 183.094 M94.400 218.800 C 94.400 219.020,93.860 219.200,93.200 219.200 C 92.540 219.200,92.000 219.359,92.000 219.553 C 92.000 219.748,91.617 220.007,91.148 220.129 C 90.577 220.279,90.375 220.559,90.537 220.980 C 90.683 221.361,90.469 221.800,89.989 222.100 C 89.233 222.572,89.200 223.081,89.200 234.273 C 89.200 242.114,89.060 246.039,88.773 246.216 C 88.167 246.591,87.198 245.154,87.413 244.200 C 87.512 243.760,87.489 243.626,87.362 243.902 C 87.235 244.179,87.004 244.326,86.849 244.230 C 86.693 244.134,86.540 244.403,86.508 244.828 C 86.476 245.252,86.575 245.600,86.729 245.600 C 86.883 245.600,87.501 246.057,88.104 246.616 C 89.161 247.596,89.200 247.603,89.200 246.793 C 89.200 246.290,89.374 246.061,89.635 246.222 C 89.874 246.369,89.978 246.840,89.866 247.268 C 89.706 247.883,89.775 247.952,90.200 247.600 C 90.621 247.250,90.698 247.310,90.554 247.877 C 90.093 249.700,104.205 251.404,106.747 249.832 C 107.366 249.450,107.394 219.200,106.776 219.200 C 106.543 219.200,106.464 219.020,106.600 218.800 C 106.761 218.540,104.671 218.400,100.624 218.400 C 96.741 218.400,94.400 218.550,94.400 218.800 M89.200 221.200 C 89.200 221.420,88.973 221.600,88.696 221.600 C 88.419 221.600,87.968 221.960,87.693 222.400 C 87.276 223.067,87.293 223.200,87.797 223.200 C 88.128 223.200,88.400 223.049,88.400 222.864 C 88.400 222.680,88.860 222.319,89.423 222.063 C 89.985 221.806,90.334 221.417,90.199 221.198 C 89.880 220.682,89.200 220.683,89.200 221.200 M90.300 368.687 L 89.200 368.853 89.200 384.427 L 89.200 400.000 98.200 400.000 L 107.200 400.000 107.200 384.600 C 107.200 374.028,107.067 369.200,106.776 369.200 C 106.543 369.200,106.464 369.020,106.600 368.800 C 106.841 368.409,92.776 368.311,90.300 368.687 " stroke="none" fill="#1cdcfc" fill-rule="evenodd"></path><path id="path3" d="M107.200 15.400 C 107.200 25.972,107.067 30.800,106.776 30.800 C 106.543 30.800,106.481 31.008,106.638 31.261 C 106.944 31.757,135.567 31.515,136.385 31.009 C 136.660 30.839,136.800 25.567,136.800 15.376 L 136.800 0.000 122.000 0.000 L 107.200 0.000 107.200 15.400 M110.400 93.600 C 111.186 93.852,110.950 93.929,109.295 93.960 L 107.191 94.000 107.295 109.500 L 107.400 125.000 122.200 125.105 L 137.000 125.210 136.891 109.605 L 136.782 94.000 135.691 93.947 C 134.720 93.900,134.754 93.862,136.000 93.600 C 136.770 93.438,131.100 93.300,123.400 93.293 C 115.700 93.285,109.850 93.424,110.400 93.600 M105.700 156.276 L 107.200 156.448 107.200 172.009 L 107.200 187.569 103.700 187.702 C 101.775 187.775,105.600 187.872,112.200 187.916 C 118.800 187.961,127.035 187.880,130.500 187.736 L 136.800 187.475 136.800 172.184 L 136.800 156.893 135.700 156.595 C 135.095 156.431,127.760 156.254,119.400 156.201 C 111.040 156.148,104.875 156.182,105.700 156.276 M106.638 218.739 C 106.481 218.992,106.546 219.200,106.781 219.200 C 107.080 219.200,107.178 223.826,107.105 234.500 L 107.000 249.800 105.200 250.061 C 104.210 250.204,110.690 250.294,119.600 250.259 C 128.510 250.225,136.025 250.052,136.300 249.875 C 136.952 249.455,137.035 219.392,136.385 218.991 C 135.567 218.485,106.944 218.243,106.638 218.739 M106.627 368.756 C 106.476 369.000,106.543 369.200,106.776 369.200 C 107.067 369.200,107.200 374.028,107.200 384.600 L 107.200 400.000 121.456 400.000 C 134.564 400.000,135.755 399.944,136.243 399.300 C 137.081 398.196,137.042 369.668,136.202 369.346 C 135.874 369.219,135.676 369.000,135.764 368.858 C 135.851 368.716,129.393 368.535,121.412 368.456 C 111.071 368.353,106.823 368.440,106.627 368.756 M138.153 369.108 C 137.448 369.646,137.464 369.664,138.400 369.396 C 139.605 369.051,140.245 368.533,139.466 368.533 C 139.158 368.533,138.567 368.792,138.153 369.108 " stroke="none" fill="#22d3fc" fill-rule="evenodd"></path><path id="path4" d="M136.705 15.500 L 136.600 31.000 132.400 31.222 C 130.090 31.344,136.210 31.478,146.000 31.520 C 155.790 31.562,165.825 31.480,168.300 31.337 L 172.800 31.078 172.800 15.539 L 172.800 0.000 154.805 -0.000 L 136.809 -0.000 136.705 15.500 M135.695 93.886 L 136.791 94.052 136.895 109.526 L 137.000 125.000 154.900 125.104 L 172.800 125.208 172.800 109.660 L 172.800 94.111 170.700 93.859 C 168.424 93.586,133.891 93.612,135.695 93.886 M132.600 156.177 C 132.820 156.265,133.855 156.452,134.900 156.593 L 136.800 156.849 136.800 172.211 L 136.800 187.573 132.500 187.702 C 130.135 187.772,136.480 187.867,146.600 187.913 C 156.720 187.959,166.755 187.880,168.900 187.738 L 172.800 187.479 172.800 172.163 C 172.800 160.348,172.686 156.774,172.300 156.528 C 172.025 156.352,162.890 156.165,152.000 156.113 C 141.110 156.060,132.380 156.089,132.600 156.177 M132.400 218.778 L 136.600 219.000 136.600 234.400 L 136.600 249.800 134.200 250.051 C 132.880 250.188,140.800 250.278,151.800 250.251 C 162.800 250.223,172.025 250.054,172.300 249.876 C 172.686 249.627,172.800 246.050,172.800 234.238 L 172.800 218.922 168.300 218.663 C 165.825 218.520,155.790 218.438,146.000 218.480 C 136.210 218.522,130.090 218.656,132.400 218.778 M129.900 368.693 C 130.835 368.777,132.365 368.777,133.300 368.693 C 134.235 368.609,133.470 368.540,131.600 368.540 C 129.730 368.540,128.965 368.609,129.900 368.693 M135.785 368.824 C 135.686 368.984,135.874 369.219,136.202 369.346 C 136.929 369.624,137.121 398.554,136.400 399.000 C 136.180 399.136,136.000 399.425,136.000 399.642 C 136.000 400.221,139.649 399.983,140.700 399.336 C 141.344 398.939,141.600 398.916,141.600 399.253 C 141.600 399.545,141.878 399.472,142.331 399.062 C 142.734 398.698,143.266 398.400,143.513 398.400 C 143.761 398.400,144.422 397.942,144.982 397.382 C 145.542 396.822,146.000 396.489,146.000 396.643 C 146.000 396.908,146.669 396.194,148.000 394.507 C 148.903 393.363,150.021 391.488,150.271 390.700 C 150.393 390.315,150.614 390.000,150.762 390.000 C 151.000 390.000,151.232 388.681,151.336 386.729 C 151.355 386.361,151.478 386.125,151.608 386.205 C 152.443 386.721,151.372 380.230,150.253 377.985 C 149.894 377.266,149.600 376.474,149.600 376.227 C 149.600 375.979,149.240 375.517,148.800 375.200 C 148.360 374.883,148.000 374.402,148.000 374.132 C 148.000 373.560,145.553 371.600,144.839 371.600 C 144.571 371.600,144.464 371.420,144.600 371.200 C 144.736 370.980,144.567 370.800,144.224 370.800 C 143.881 370.800,143.600 370.641,143.600 370.447 C 143.600 370.086,142.079 369.466,141.453 369.572 C 141.263 369.605,140.656 369.335,140.104 368.974 C 139.553 368.613,139.224 368.516,139.374 368.759 C 139.524 369.001,139.471 369.200,139.256 369.200 C 139.041 369.200,138.536 369.314,138.133 369.454 C 137.490 369.677,137.498 369.630,138.200 369.072 C 138.966 368.463,138.936 368.438,137.483 368.483 C 136.649 368.509,135.885 368.663,135.785 368.824 " stroke="none" fill="#2cccfc" fill-rule="evenodd"></path><path id="path5" d="M74.270 0.264 C 74.125 0.409,73.092 0.495,71.974 0.455 C 70.678 0.409,70.034 0.531,70.195 0.792 C 70.454 1.210,69.955 1.350,68.675 1.217 C 68.276 1.175,67.486 1.604,66.920 2.171 C 66.354 2.737,65.600 3.200,65.245 3.200 C 64.661 3.200,64.600 4.856,64.600 20.600 C 64.600 30.170,64.746 38.000,64.924 38.000 C 65.102 38.000,65.158 37.856,65.050 37.681 C 64.714 37.138,65.493 36.259,66.368 36.195 C 66.826 36.161,67.200 36.294,67.200 36.490 C 67.200 36.687,67.383 36.734,67.607 36.596 C 67.830 36.458,67.930 36.210,67.828 36.046 C 67.727 35.881,68.260 35.468,69.013 35.126 C 69.766 34.785,70.287 34.658,70.172 34.845 C 70.057 35.032,70.556 34.887,71.281 34.524 C 73.762 33.283,73.990 33.200,74.915 33.200 C 75.424 33.200,76.013 33.027,76.224 32.816 C 76.435 32.605,77.803 32.380,79.265 32.316 C 80.726 32.252,81.839 32.065,81.738 31.900 C 81.636 31.735,83.768 31.573,86.476 31.540 C 89.184 31.507,90.905 31.405,90.300 31.313 L 89.200 31.147 89.200 15.573 L 89.200 0.000 81.867 0.000 C 77.833 0.000,74.415 0.119,74.270 0.264 M66.000 1.960 C 66.000 2.282,65.703 2.360,65.150 2.184 C 64.578 2.003,64.389 2.059,64.574 2.357 C 64.724 2.601,65.096 2.800,65.400 2.800 C 66.033 2.800,66.598 2.065,66.240 1.707 C 66.108 1.575,66.000 1.689,66.000 1.960 M101.282 93.496 C 102.758 93.573,105.278 93.573,106.882 93.497 C 108.487 93.421,107.280 93.358,104.200 93.358 C 101.120 93.357,99.807 93.419,101.282 93.496 M87.985 98.218 C 87.703 98.558,87.236 98.746,86.949 98.636 C 86.661 98.525,86.302 98.635,86.151 98.879 C 85.991 99.138,86.058 99.212,86.311 99.055 C 86.549 98.908,86.858 98.970,86.996 99.193 C 87.222 99.559,86.702 99.774,85.900 99.647 C 85.735 99.621,85.600 99.881,85.600 100.224 C 85.600 100.567,85.440 100.749,85.245 100.628 C 85.050 100.507,84.915 100.666,84.945 100.981 C 84.975 101.296,84.847 101.519,84.661 101.477 C 84.078 101.345,83.266 103.742,83.705 104.300 C 83.924 104.579,83.937 104.800,83.734 104.800 C 83.534 104.800,83.341 105.189,83.305 105.664 C 83.269 106.139,83.006 106.696,82.720 106.902 C 82.342 107.173,82.391 107.214,82.900 107.050 C 83.776 106.769,83.871 107.921,83.000 108.255 C 82.364 108.499,82.149 110.400,82.757 110.400 C 82.954 110.400,83.226 110.690,83.362 111.045 C 83.539 111.506,83.437 111.623,83.005 111.457 C 82.672 111.329,82.400 111.399,82.400 111.613 C 82.400 111.826,82.566 112.000,82.768 112.000 C 82.971 112.000,83.255 112.540,83.400 113.200 C 83.545 113.860,83.851 114.400,84.081 114.400 C 84.318 114.400,84.262 114.691,83.949 115.077 C 83.481 115.653,83.483 115.703,83.963 115.414 C 84.398 115.152,84.475 115.271,84.300 115.937 C 84.176 116.412,84.217 116.800,84.391 116.800 C 84.565 116.800,84.795 117.140,84.904 117.555 C 85.013 117.970,85.605 118.555,86.221 118.855 C 86.837 119.155,87.420 119.670,87.516 120.000 C 87.622 120.361,87.439 120.281,87.059 119.800 C 86.577 119.191,86.422 119.144,86.413 119.604 C 86.406 119.936,86.779 120.444,87.242 120.733 C 87.765 121.060,87.977 121.087,87.802 120.803 C 87.622 120.512,87.788 120.392,88.260 120.473 C 88.964 120.594,89.004 120.045,89.083 109.100 C 89.163 97.921,89.062 96.920,87.985 98.218 M89.169 121.076 C 89.153 121.254,89.078 121.715,89.005 122.100 C 88.931 122.485,89.054 122.800,89.278 122.800 C 89.502 122.800,89.586 122.542,89.465 122.226 C 89.344 121.910,89.451 121.583,89.703 121.499 C 90.038 121.387,90.032 121.267,89.680 121.050 C 89.416 120.886,89.186 120.898,89.169 121.076 M89.338 159.017 C 89.208 159.357,89.209 159.742,89.341 159.874 C 89.687 160.220,90.833 159.177,90.572 158.755 C 90.231 158.202,89.599 158.337,89.338 159.017 M88.013 160.277 C 88.003 160.949,87.804 161.116,87.164 160.993 C 86.495 160.864,86.419 160.941,86.784 161.380 C 87.096 161.757,87.108 162.010,86.819 162.188 C 86.589 162.331,86.389 162.212,86.375 161.924 C 86.361 161.636,86.187 161.805,85.988 162.300 C 85.789 162.795,85.459 163.200,85.256 163.200 C 84.920 163.200,84.277 164.818,84.222 165.800 C 84.210 166.020,84.040 166.316,83.844 166.458 C 83.648 166.600,83.412 167.500,83.318 168.458 C 83.224 169.416,82.979 170.371,82.773 170.580 C 82.250 171.112,82.306 172.800,82.847 172.800 C 83.096 172.800,83.201 173.153,83.084 173.601 C 82.966 174.050,83.041 174.298,83.253 174.167 C 83.478 174.028,83.525 174.359,83.369 174.983 C 83.183 175.720,83.327 176.285,83.853 176.884 C 84.541 177.669,84.545 177.715,83.892 177.477 C 83.308 177.264,83.358 177.475,84.174 178.676 C 84.719 179.478,85.072 180.284,84.959 180.467 C 84.845 180.650,85.123 180.800,85.576 180.800 C 86.141 180.800,86.400 181.059,86.400 181.624 C 86.400 182.176,86.565 182.348,86.900 182.147 C 87.205 181.963,87.174 182.125,86.819 182.562 C 86.296 183.205,86.317 183.269,87.019 183.193 C 88.700 183.010,88.945 183.140,88.349 183.900 C 87.851 184.534,87.866 184.549,88.500 184.051 C 89.475 183.286,89.578 161.453,88.613 160.176 C 88.039 159.418,88.025 159.420,88.013 160.277 M90.161 221.136 C 90.331 221.411,90.033 221.784,89.423 222.063 C 88.860 222.319,88.400 222.680,88.400 222.864 C 88.400 223.049,88.046 223.200,87.613 223.200 C 87.052 223.200,86.897 223.386,87.073 223.846 C 87.273 224.368,87.145 224.437,86.410 224.203 C 85.871 224.032,85.595 224.068,85.732 224.290 C 85.860 224.497,85.506 225.342,84.945 226.167 C 84.361 227.027,84.010 227.996,84.125 228.434 C 84.252 228.921,84.120 229.200,83.763 229.200 C 83.440 229.200,83.200 229.598,83.200 230.133 C 83.200 230.647,83.070 231.196,82.912 231.355 C 82.487 231.779,82.427 237.169,82.844 237.427 C 83.040 237.548,83.200 238.157,83.200 238.781 C 83.200 239.414,83.462 240.015,83.793 240.142 C 84.131 240.272,84.285 240.635,84.150 240.985 C 84.021 241.323,84.114 241.600,84.357 241.600 C 84.601 241.600,84.800 241.851,84.800 242.157 C 84.800 242.464,85.072 242.819,85.404 242.946 C 85.736 243.073,85.984 243.318,85.956 243.489 C 85.833 244.241,86.032 244.800,86.424 244.800 C 86.657 244.800,86.719 244.592,86.562 244.338 C 86.393 244.065,86.451 243.984,86.704 244.141 C 86.939 244.286,87.235 244.179,87.362 243.902 C 87.489 243.626,87.512 243.760,87.413 244.200 C 87.198 245.154,88.167 246.591,88.773 246.216 C 89.008 246.071,89.200 246.211,89.200 246.527 C 89.200 247.425,90.259 248.160,90.629 247.519 C 90.793 247.234,90.782 247.132,90.604 247.294 C 89.515 248.279,89.200 245.318,89.200 234.118 C 89.200 222.926,89.215 222.716,90.065 222.028 C 90.734 221.486,90.811 221.254,90.403 221.002 C 90.054 220.786,89.972 220.832,90.161 221.136 M64.600 379.400 C 64.600 395.144,64.661 396.800,65.245 396.800 C 65.600 396.800,66.354 397.263,66.920 397.829 C 67.486 398.396,68.276 398.825,68.675 398.783 C 69.964 398.649,70.453 398.791,70.187 399.220 C 70.022 399.488,70.556 399.647,71.664 399.659 C 72.619 399.670,76.955 399.761,81.300 399.863 L 89.200 400.048 89.200 384.450 L 89.200 368.853 90.300 368.687 C 90.905 368.595,89.184 368.493,86.476 368.460 C 83.768 368.427,81.636 368.265,81.738 368.100 C 81.839 367.935,80.726 367.748,79.265 367.684 C 77.803 367.620,76.435 367.395,76.224 367.184 C 76.013 366.973,75.347 366.800,74.744 366.800 C 74.141 366.800,73.536 366.620,73.400 366.400 C 73.264 366.180,72.828 366.000,72.430 366.000 C 72.033 366.000,71.258 365.646,70.708 365.213 C 70.157 364.780,69.607 364.527,69.484 364.650 C 69.137 364.996,67.561 364.386,67.801 363.999 C 67.917 363.810,67.830 363.542,67.607 363.404 C 67.383 363.266,67.200 363.313,67.200 363.510 C 67.200 363.706,66.826 363.839,66.368 363.805 C 65.493 363.741,64.714 362.862,65.050 362.319 C 65.158 362.144,65.102 362.000,64.924 362.000 C 64.746 362.000,64.600 369.830,64.600 379.400 M64.572 397.646 C 64.356 397.995,64.480 398.055,65.002 397.854 C 65.438 397.687,65.883 397.782,66.098 398.086 C 66.375 398.478,66.422 398.458,66.297 398.000 C 66.089 397.234,64.968 397.004,64.572 397.646 " stroke="none" fill="#14dcfc" fill-rule="evenodd"></path><path id="path6" d="M172.800 15.583 L 172.800 31.166 169.700 31.303 C 167.995 31.378,177.327 31.475,190.438 31.520 C 203.549 31.564,216.194 31.483,218.538 31.339 L 222.800 31.078 222.800 15.539 L 222.800 0.000 197.800 0.000 L 172.800 0.000 172.800 15.583 M154.800 93.613 C 164.590 93.749,172.645 93.892,172.700 93.930 C 172.755 93.969,172.800 101.020,172.800 109.600 L 172.800 125.200 200.700 125.121 C 216.045 125.077,227.295 124.979,225.700 124.903 L 222.800 124.765 222.800 109.382 L 222.800 94.000 226.200 94.000 C 228.200 94.000,229.600 93.835,229.600 93.600 C 229.600 93.335,213.955 93.228,183.300 93.283 C 149.088 93.344,141.647 93.430,154.800 93.613 M169.600 156.371 L 172.600 156.600 172.705 172.082 L 172.809 187.563 170.105 187.703 C 164.907 187.972,194.721 187.996,208.705 187.734 L 222.809 187.470 222.705 171.835 L 222.600 156.200 194.600 156.171 C 179.200 156.155,167.950 156.245,169.600 156.371 M169.705 218.697 L 172.809 218.834 172.705 234.317 L 172.600 249.800 170.200 250.033 C 168.880 250.161,175.214 250.296,184.276 250.333 C 194.903 250.376,200.841 250.258,201.000 250.000 C 201.136 249.780,201.787 249.600,202.447 249.600 C 203.145 249.600,203.544 249.433,203.400 249.200 C 203.264 248.980,203.446 248.800,203.805 248.800 C 204.164 248.800,204.729 248.528,205.061 248.196 C 205.393 247.864,205.858 247.712,206.094 247.858 C 206.349 248.015,206.407 247.936,206.238 247.662 C 206.067 247.385,206.213 247.200,206.600 247.200 C 206.956 247.200,207.153 247.047,207.037 246.860 C 206.922 246.673,207.271 246.283,207.814 245.993 C 208.356 245.702,208.800 245.247,208.800 244.981 C 208.800 244.715,209.084 244.262,209.431 243.974 C 210.276 243.273,212.000 239.825,212.000 238.837 C 212.000 238.403,212.180 237.936,212.400 237.800 C 212.620 237.664,212.800 236.224,212.800 234.600 C 212.800 232.976,212.620 231.536,212.400 231.400 C 212.180 231.264,212.000 230.629,212.000 229.989 C 212.000 228.937,211.633 228.085,209.938 225.193 C 209.082 223.733,205.915 220.800,205.195 220.800 C 204.978 220.800,204.800 220.620,204.800 220.400 C 204.800 220.180,204.440 220.000,204.000 220.000 C 203.560 220.000,203.200 219.820,203.200 219.600 C 203.200 219.380,202.750 219.200,202.200 219.200 C 201.650 219.200,201.200 219.020,201.200 218.800 C 201.200 218.538,195.220 218.428,183.900 218.480 C 174.385 218.525,167.997 218.622,169.705 218.697 M249.260 274.642 C 248.962 274.978,248.799 275.332,248.895 275.429 C 248.992 275.526,249.398 275.244,249.798 274.802 C 250.197 274.361,250.361 274.007,250.162 274.015 C 249.963 274.024,249.557 274.305,249.260 274.642 M237.270 286.926 C 236.791 287.435,236.400 287.988,236.400 288.154 C 236.400 288.469,237.003 287.902,237.949 286.698 C 238.743 285.689,238.289 285.840,237.270 286.926 M234.403 289.997 C 233.894 290.439,233.640 290.794,233.839 290.787 C 234.387 290.768,235.771 289.637,235.535 289.402 C 235.421 289.288,234.912 289.556,234.403 289.997 M232.432 291.924 C 232.414 292.212,232.216 292.333,231.990 292.194 C 231.765 292.055,231.630 292.179,231.690 292.470 C 231.751 292.762,231.530 292.942,231.200 292.871 C 230.717 292.768,230.698 292.843,231.103 293.254 C 231.725 293.887,233.023 292.804,232.678 291.939 C 232.507 291.511,232.457 291.508,232.432 291.924 M227.600 296.800 C 228.087 297.114,228.032 297.189,227.313 297.194 C 226.648 297.198,226.490 297.368,226.682 297.869 C 226.879 298.382,226.778 298.477,226.249 298.274 C 225.869 298.128,225.658 298.171,225.780 298.368 C 225.902 298.566,225.462 299.182,224.801 299.738 C 224.140 300.294,223.600 300.951,223.600 301.198 C 223.600 301.445,223.389 301.517,223.132 301.358 C 222.815 301.162,222.749 301.289,222.927 301.755 C 223.089 302.177,223.032 302.344,222.780 302.188 C 222.244 301.856,219.130 305.163,219.466 305.707 C 219.611 305.942,219.531 306.005,219.282 305.851 C 219.037 305.699,217.826 306.561,216.558 307.789 C 215.303 309.005,214.124 310.000,213.938 310.000 C 213.752 310.000,213.600 310.281,213.600 310.624 C 213.600 310.967,213.450 311.154,213.266 311.041 C 213.082 310.927,212.632 311.462,212.267 312.229 C 211.901 312.997,211.332 313.728,211.003 313.854 C 210.674 313.981,210.492 314.225,210.598 314.397 C 210.704 314.569,210.534 314.923,210.219 315.184 C 209.905 315.445,209.746 315.915,209.867 316.229 C 209.987 316.543,209.886 316.800,209.643 316.800 C 209.399 316.800,209.200 317.160,209.200 317.600 C 209.200 318.040,209.059 318.400,208.887 318.400 C 208.715 318.400,208.534 318.887,208.485 319.482 C 208.436 320.078,208.216 320.744,207.998 320.962 C 207.779 321.181,207.600 322.044,207.600 322.880 C 207.600 323.716,207.420 324.400,207.200 324.400 C 206.980 324.400,206.800 324.850,206.800 325.400 C 206.800 325.950,206.620 326.400,206.400 326.400 C 206.180 326.400,206.000 326.940,206.000 327.600 C 206.000 328.260,205.857 328.800,205.682 328.800 C 205.507 328.800,205.319 329.475,205.264 330.300 C 205.210 331.125,204.993 331.860,204.782 331.933 C 204.572 332.007,204.400 332.602,204.400 333.257 C 204.400 333.949,204.232 334.344,204.000 334.200 C 203.758 334.051,203.600 334.596,203.600 335.576 C 203.600 336.469,203.420 337.200,203.200 337.200 C 202.980 337.200,202.800 337.740,202.800 338.400 C 202.800 339.060,202.659 339.600,202.487 339.600 C 202.315 339.600,202.134 340.085,202.085 340.678 C 202.036 341.270,201.862 341.855,201.698 341.978 C 201.534 342.100,201.384 342.380,201.365 342.600 C 201.301 343.333,200.327 346.590,199.961 347.295 C 199.762 347.677,199.600 348.532,199.600 349.195 C 199.600 349.858,199.459 350.400,199.287 350.400 C 199.115 350.400,198.739 351.255,198.452 352.300 C 198.164 353.345,197.843 354.470,197.739 354.800 C 197.634 355.130,197.538 355.490,197.526 355.600 C 197.514 355.710,197.329 356.250,197.115 356.800 C 196.901 357.350,196.642 358.250,196.539 358.800 C 196.436 359.350,196.183 359.971,195.976 360.180 C 195.769 360.389,195.600 361.165,195.600 361.904 C 195.600 362.643,195.447 363.153,195.260 363.037 C 195.074 362.922,194.905 363.374,194.886 364.042 C 194.867 364.709,194.683 365.468,194.476 365.728 C 194.270 365.987,194.164 366.587,194.242 367.060 C 194.321 367.545,194.133 368.017,193.811 368.141 C 193.488 368.264,193.307 368.718,193.396 369.180 C 193.483 369.631,193.414 370.000,193.244 370.000 C 193.073 370.000,192.903 370.270,192.867 370.600 C 192.830 370.930,192.770 371.470,192.733 371.800 C 192.697 372.130,192.517 372.400,192.333 372.400 C 192.150 372.400,192.000 373.221,192.000 374.224 C 192.000 375.227,191.840 375.948,191.645 375.828 C 191.295 375.611,190.965 376.761,190.535 379.700 C 190.415 380.525,190.110 381.203,189.858 381.206 C 189.606 381.209,189.670 381.387,190.000 381.600 C 190.330 381.813,190.408 381.991,190.174 381.994 C 189.918 381.998,189.730 383.146,189.701 384.881 C 189.669 386.770,189.779 387.562,190.020 387.181 C 190.277 386.774,190.390 387.110,190.394 388.300 C 190.397 389.235,190.580 390.000,190.800 390.000 C 191.020 390.000,191.200 390.500,191.200 391.112 C 191.200 391.765,191.530 392.461,192.000 392.800 C 192.440 393.117,192.803 393.742,192.806 394.188 C 192.811 394.859,192.880 394.896,193.200 394.400 C 193.458 394.000,193.590 393.967,193.594 394.300 C 193.597 394.575,193.555 394.853,193.500 394.918 C 193.309 395.144,195.566 397.200,196.005 397.200 C 196.248 397.200,196.360 397.342,196.252 397.515 C 196.145 397.688,196.630 398.079,197.329 398.383 C 198.028 398.687,198.713 399.105,198.851 399.313 C 199.726 400.624,213.169 399.904,216.600 398.361 C 217.040 398.164,217.797 397.946,218.282 397.879 C 218.767 397.811,219.502 397.451,219.914 397.078 C 220.326 396.705,220.829 396.403,221.031 396.406 C 221.234 396.409,221.130 396.587,220.800 396.800 C 220.297 397.125,220.293 397.189,220.774 397.194 C 221.090 397.197,221.794 396.795,222.339 396.300 C 222.883 395.805,223.215 395.599,223.077 395.842 C 222.911 396.132,223.164 396.219,223.812 396.096 C 224.355 395.992,224.800 395.753,224.800 395.566 C 224.800 395.378,224.575 395.308,224.300 395.408 C 222.793 395.961,222.807 396.400,222.797 349.069 C 222.787 303.601,222.794 303.173,223.593 302.315 C 224.037 301.839,224.414 301.168,224.432 300.825 C 224.452 300.412,224.532 300.370,224.665 300.700 C 224.776 300.975,225.054 301.200,225.282 301.200 C 225.533 301.200,225.501 300.962,225.200 300.600 C 224.718 300.019,224.750 299.957,225.592 299.850 C 225.808 299.822,226.298 299.350,226.680 298.800 C 227.062 298.250,227.741 297.491,228.188 297.113 C 228.995 296.431,228.994 296.427,228.000 296.419 C 227.210 296.414,227.126 296.493,227.600 296.800 M354.581 304.500 L 353.000 306.200 354.700 304.619 C 355.635 303.749,356.400 302.984,356.400 302.919 C 356.400 302.616,356.052 302.919,354.581 304.500 M229.584 359.623 C 229.105 360.296,228.822 360.956,228.956 361.090 C 229.090 361.224,229.200 361.113,229.200 360.843 C 229.200 360.573,229.408 360.481,229.662 360.638 C 229.949 360.816,230.015 360.748,229.836 360.459 C 229.679 360.203,229.801 359.898,230.108 359.780 C 230.415 359.662,230.667 359.303,230.667 358.983 C 230.667 358.176,230.575 358.230,229.584 359.623 M227.778 394.435 C 227.631 394.674,227.183 394.784,226.785 394.680 C 226.287 394.550,226.127 394.664,226.273 395.045 C 226.566 395.810,227.060 395.740,228.000 394.800 C 228.440 394.360,228.631 394.000,228.424 394.000 C 228.217 394.000,227.926 394.196,227.778 394.435 M229.200 394.365 C 229.200 394.771,230.223 394.711,230.655 394.278 C 230.808 394.125,230.543 394.000,230.067 394.000 C 229.590 394.000,229.200 394.164,229.200 394.365 " stroke="none" fill="#34c4fc" fill-rule="evenodd"></path><path id="path7" d="" stroke="none" fill="#34ccfc" fill-rule="evenodd"></path><path id="path8" d="M314.800 13.391 C 314.800 14.079,317.143 15.798,317.523 15.389 C 317.675 15.225,317.540 14.999,317.223 14.886 C 316.905 14.774,316.230 14.267,315.723 13.759 C 315.113 13.149,314.800 13.025,314.800 13.391 M317.600 16.452 C 317.600 16.607,317.825 16.825,318.100 16.936 C 318.476 17.089,318.452 17.244,318.000 17.563 C 317.476 17.934,317.482 17.989,318.053 17.994 C 318.430 17.997,318.785 17.589,318.892 17.029 C 319.037 16.273,318.915 16.071,318.339 16.115 C 317.933 16.145,317.600 16.297,317.600 16.452 M319.742 17.492 C 319.904 17.762,319.831 18.369,319.579 18.840 C 319.313 19.335,319.291 19.591,319.526 19.446 C 319.749 19.308,320.008 19.331,320.100 19.498 C 320.193 19.664,320.222 19.597,320.166 19.349 C 320.109 19.101,320.236 18.724,320.448 18.512 C 320.696 18.264,320.586 17.924,320.140 17.563 C 319.712 17.216,319.560 17.188,319.742 17.492 M324.413 23.420 C 324.406 23.651,324.625 24.082,324.900 24.379 C 325.308 24.819,325.271 24.872,324.700 24.671 C 324.315 24.536,324.000 24.556,324.000 24.716 C 324.000 25.117,325.593 26.081,325.631 25.703 C 325.647 25.537,325.724 25.069,325.801 24.663 C 325.877 24.258,325.836 24.030,325.710 24.157 C 325.583 24.284,325.242 24.075,324.952 23.694 C 324.663 23.312,324.420 23.189,324.413 23.420 M326.800 26.600 C 326.391 27.093,326.422 27.200,326.975 27.200 C 327.345 27.200,327.548 27.360,327.427 27.556 C 327.306 27.752,327.700 28.213,328.303 28.580 L 329.400 29.247 328.456 28.424 C 327.873 27.916,327.720 27.595,328.056 27.588 C 328.415 27.580,328.359 27.435,327.892 27.163 C 327.502 26.936,327.288 26.582,327.415 26.375 C 327.783 25.781,327.348 25.939,326.800 26.600 M328.414 30.374 C 328.133 30.899,328.000 53.970,328.000 102.147 L 328.000 173.146 327.160 173.413 C 326.521 173.615,326.432 173.790,326.787 174.140 C 327.140 174.487,327.370 174.445,327.727 173.965 C 327.987 173.616,328.470 173.404,328.800 173.495 C 329.190 173.603,329.244 173.545,328.955 173.330 C 328.706 173.146,328.632 172.656,328.787 172.221 C 329.052 171.482,329.077 171.486,329.295 172.321 C 329.422 172.805,329.767 173.186,330.063 173.168 C 330.467 173.145,330.476 173.087,330.100 172.935 C 329.259 172.596,329.544 172.004,330.500 172.105 C 331.020 172.160,331.361 171.999,331.308 171.725 C 331.258 171.463,331.533 171.310,331.919 171.384 C 332.930 171.579,334.253 170.582,333.412 170.260 C 333.075 170.131,332.803 169.794,332.806 169.513 C 332.811 169.129,332.901 169.141,333.166 169.558 C 333.649 170.321,334.958 169.790,334.640 168.960 C 334.478 168.539,334.666 168.256,335.198 168.116 C 335.683 167.990,336.001 167.570,336.003 167.053 C 336.004 166.584,336.363 165.660,336.800 165.000 C 337.237 164.340,337.596 164.055,337.597 164.367 C 337.599 164.678,337.716 164.818,337.857 164.676 C 337.998 164.535,337.886 164.145,337.608 163.810 C 337.231 163.355,337.223 163.200,337.578 163.200 C 337.881 163.200,337.956 162.892,337.784 162.350 C 337.603 161.778,337.659 161.589,337.957 161.774 C 338.201 161.924,338.400 161.870,338.400 161.653 C 338.400 161.436,338.102 161.200,337.738 161.129 C 337.143 161.013,337.151 160.938,337.814 160.400 C 338.471 159.867,338.516 159.867,338.213 160.400 C 338.009 160.758,338.019 160.865,338.236 160.667 C 338.728 160.216,338.718 159.465,338.213 159.106 C 337.950 158.919,337.945 158.810,338.200 158.806 C 338.780 158.797,338.544 63.256,337.962 62.555 C 337.478 61.971,337.851 61.061,338.428 61.417 C 338.632 61.544,338.800 61.377,338.800 61.047 C 338.800 60.717,338.620 60.336,338.400 60.200 C 338.180 60.064,338.000 59.773,338.000 59.553 C 338.000 59.333,338.178 59.263,338.395 59.397 C 338.622 59.537,338.689 59.377,338.554 59.023 C 338.423 58.683,338.141 58.513,337.927 58.645 C 337.495 58.912,337.732 56.757,338.223 55.963 C 338.404 55.670,338.356 55.580,338.104 55.736 C 337.873 55.879,337.581 55.726,337.454 55.398 C 337.328 55.069,337.379 54.800,337.568 54.800 C 338.144 54.800,337.840 53.418,337.200 53.128 C 336.682 52.893,336.687 52.852,337.233 52.828 C 337.582 52.813,337.867 52.533,337.867 52.206 C 337.867 51.733,337.749 51.710,337.287 52.094 C 336.810 52.490,336.738 52.436,336.878 51.787 C 336.971 51.354,337.262 51.045,337.524 51.100 C 337.786 51.155,338.000 51.001,338.000 50.757 C 338.000 50.514,337.710 50.426,337.356 50.562 C 336.834 50.762,336.759 50.618,336.963 49.805 C 337.116 49.197,337.045 48.800,336.784 48.800 C 336.547 48.800,336.471 48.608,336.616 48.373 C 336.761 48.139,336.547 47.694,336.140 47.386 C 335.733 47.078,335.615 46.820,335.877 46.813 C 336.361 46.800,336.263 45.304,335.749 44.846 C 335.597 44.711,335.602 44.960,335.760 45.400 C 335.985 46.027,335.942 46.096,335.561 45.717 C 335.180 45.340,335.180 45.107,335.556 44.653 C 335.861 44.285,335.894 43.981,335.644 43.827 C 335.427 43.693,335.318 43.227,335.402 42.792 C 335.568 41.928,334.983 41.692,334.678 42.500 C 334.574 42.775,334.538 42.280,334.596 41.400 C 334.655 40.520,334.624 40.106,334.526 40.480 C 334.221 41.655,332.548 40.590,332.630 39.273 C 332.740 37.499,332.796 37.375,333.200 38.000 C 333.534 38.517,333.589 38.507,333.594 37.924 C 333.597 37.552,333.417 37.134,333.193 36.996 C 332.970 36.858,332.908 36.549,333.055 36.311 C 333.215 36.051,333.137 35.991,332.862 36.162 C 332.568 36.343,332.400 36.139,332.400 35.600 C 332.400 35.134,332.220 34.864,332.000 35.000 C 331.646 35.219,331.417 34.176,331.554 32.969 C 331.584 32.712,331.118 32.609,330.402 32.714 C 329.736 32.812,329.200 32.709,329.200 32.483 C 329.200 32.258,329.560 32.169,330.000 32.284 C 331.091 32.569,331.015 31.885,329.900 31.391 C 329.405 31.171,329.025 30.678,329.056 30.296 C 329.128 29.391,328.927 29.415,328.414 30.374 M310.400 169.767 C 310.400 170.513,311.448 171.569,312.200 171.581 C 312.445 171.585,312.436 171.474,312.177 171.294 C 311.944 171.132,311.449 170.555,311.077 170.011 C 310.504 169.174,310.400 169.137,310.400 169.767 M312.800 171.775 C 312.800 172.145,312.965 172.345,313.166 172.221 C 313.367 172.097,313.623 172.221,313.734 172.498 C 313.860 172.811,313.949 172.830,313.968 172.549 C 313.986 172.301,313.730 171.874,313.400 171.600 C 312.907 171.191,312.800 171.222,312.800 171.775 M315.678 173.305 C 315.358 173.692,315.531 173.822,316.411 173.858 C 317.390 173.898,317.480 173.823,317.010 173.353 C 316.331 172.673,316.207 172.669,315.678 173.305 M324.452 173.737 C 324.207 174.032,324.125 174.392,324.270 174.537 C 324.740 175.006,325.028 174.817,325.090 174.000 C 325.161 173.058,325.053 173.014,324.452 173.737 M321.062 174.500 C 321.164 174.665,321.777 174.800,322.424 174.800 C 323.071 174.800,323.600 174.665,323.600 174.500 C 323.600 174.335,322.987 174.200,322.238 174.200 C 321.489 174.200,320.960 174.335,321.062 174.500 M326.800 212.843 C 326.800 213.552,326.976 213.650,327.900 213.459 C 328.505 213.334,328.775 213.330,328.500 213.449 C 327.860 213.728,327.761 243.600,328.400 243.600 C 328.620 243.600,328.800 243.870,328.800 244.200 C 328.800 244.539,329.158 244.800,329.624 244.800 C 330.077 244.800,330.336 244.620,330.200 244.400 C 330.064 244.180,330.128 244.000,330.343 244.000 C 330.558 244.000,330.824 244.225,330.935 244.500 C 331.074 244.843,331.149 244.812,331.175 244.400 C 331.208 243.867,331.260 243.867,331.641 244.400 C 331.988 244.885,332.033 244.834,331.880 244.128 C 331.736 243.467,331.868 243.270,332.428 243.312 C 332.834 243.343,333.092 243.441,333.002 243.531 C 332.532 244.001,334.151 244.800,335.571 244.800 C 336.467 244.800,337.200 244.960,337.200 245.155 C 337.200 245.351,337.785 245.624,338.500 245.762 C 339.215 245.900,340.233 246.470,340.763 247.028 C 341.436 247.738,341.814 247.900,342.019 247.569 C 342.216 247.251,342.402 247.376,342.583 247.947 C 342.732 248.416,343.067 248.803,343.327 248.806 C 343.607 248.810,343.555 248.971,343.200 249.200 C 342.618 249.576,343.016 249.793,344.053 249.663 C 344.192 249.646,344.282 249.849,344.253 250.116 C 344.224 250.382,344.350 250.600,344.534 250.600 C 344.939 250.600,346.058 253.020,346.287 254.393 C 346.378 254.938,346.643 255.503,346.876 255.647 C 347.423 255.985,347.324 262.076,346.767 262.421 C 346.526 262.569,346.471 263.145,346.635 263.798 C 346.814 264.509,346.771 264.829,346.517 264.672 C 346.297 264.536,345.909 264.881,345.655 265.438 C 345.402 265.995,345.345 266.357,345.530 266.243 C 345.715 266.129,345.867 266.280,345.867 266.579 C 345.867 266.879,345.627 267.032,345.333 266.919 C 345.023 266.800,344.800 266.988,344.800 267.370 C 344.800 267.730,344.520 268.133,344.177 268.264 C 343.834 268.396,343.645 268.741,343.757 269.031 C 343.892 269.385,343.746 269.477,343.314 269.312 C 342.884 269.147,342.765 269.220,342.958 269.532 C 343.117 269.789,343.057 270.000,342.824 270.000 C 342.591 270.000,342.400 270.264,342.400 270.587 C 342.400 270.980,342.168 271.088,341.700 270.913 C 341.101 270.688,341.075 270.742,341.519 271.289 C 341.920 271.782,341.929 271.997,341.558 272.226 C 341.263 272.408,341.181 272.355,341.345 272.088 C 341.518 271.809,341.177 271.666,340.389 271.688 C 339.714 271.707,338.946 271.489,338.681 271.203 C 338.298 270.789,338.322 270.751,338.800 271.018 C 339.315 271.306,339.323 271.259,338.858 270.685 C 338.449 270.181,338.132 270.115,337.567 270.418 C 336.977 270.734,336.865 270.696,337.040 270.239 C 337.173 269.893,336.848 269.388,336.235 268.986 C 335.669 268.616,335.276 268.197,335.361 268.056 C 335.579 267.695,334.537 266.796,334.243 267.091 C 334.109 267.224,334.000 267.123,334.000 266.867 C 334.000 266.610,334.187 266.400,334.416 266.400 C 334.661 266.400,334.626 266.180,334.331 265.864 C 333.664 265.150,332.672 265.946,333.289 266.700 C 333.568 267.042,333.566 267.200,333.282 267.200 C 333.054 267.200,332.807 267.065,332.733 266.900 C 332.660 266.735,331.854 265.942,330.941 265.139 C 329.793 264.126,329.411 263.549,329.699 263.261 C 329.987 262.973,329.821 262.910,329.158 263.056 L 328.200 263.268 329.131 262.509 C 329.940 261.849,329.984 261.685,329.467 261.255 C 328.816 260.716,328.156 261.282,328.600 262.000 C 328.736 262.220,328.657 262.400,328.424 262.400 C 328.129 262.400,328.000 272.500,328.000 295.600 C 328.000 319.606,328.123 328.800,328.443 328.800 C 328.691 328.800,328.778 328.492,328.642 328.100 C 328.411 327.437,328.427 327.437,328.939 328.094 C 329.644 328.999,330.089 328.538,329.564 327.447 C 329.196 326.683,329.210 326.667,329.712 327.286 C 330.414 328.153,331.188 327.505,331.225 326.020 C 331.250 325.012,331.255 325.011,331.612 325.900 C 331.811 326.395,332.064 326.800,332.175 326.800 C 332.285 326.800,332.280 326.553,332.164 326.252 C 332.049 325.950,332.231 325.597,332.570 325.467 C 332.909 325.337,333.095 324.992,332.984 324.702 C 332.841 324.329,333.163 324.177,334.075 324.187 C 335.210 324.198,340.800 319.494,340.800 318.527 C 340.800 318.423,341.522 317.664,342.405 316.841 C 343.288 316.017,343.888 315.221,343.739 315.072 C 343.589 314.922,343.777 314.800,344.157 314.800 C 344.537 314.800,344.736 314.620,344.600 314.400 C 344.464 314.180,344.628 314.000,344.964 314.000 C 345.323 314.000,345.486 313.769,345.360 313.440 C 345.242 313.133,345.366 312.745,345.635 312.579 C 345.976 312.367,346.022 312.445,345.785 312.838 C 345.497 313.317,345.547 313.319,346.123 312.851 C 346.495 312.549,346.800 312.087,346.800 311.823 C 346.800 311.110,348.908 309.395,349.600 309.546 C 349.930 309.617,350.071 309.545,349.914 309.385 C 349.441 308.905,350.360 307.610,351.001 307.856 C 351.378 308.000,351.723 307.728,351.964 307.095 C 352.300 306.211,353.383 305.394,354.052 305.521 C 354.191 305.547,354.641 305.170,355.052 304.684 L 355.800 303.800 354.800 304.563 C 354.250 304.983,355.035 304.144,356.545 302.699 C 358.330 300.990,359.183 299.896,358.983 299.573 C 358.791 299.261,358.840 299.178,359.117 299.349 C 359.543 299.612,363.600 296.088,363.600 295.455 C 363.600 294.951,364.682 294.015,364.952 294.286 C 365.089 294.422,365.200 294.223,365.200 293.843 C 365.200 293.463,365.349 293.245,365.530 293.357 C 365.712 293.469,366.477 292.815,367.230 291.904 C 367.984 290.992,368.934 289.935,369.343 289.554 C 369.781 289.145,369.959 288.657,369.777 288.363 C 369.561 288.013,369.668 287.941,370.134 288.119 C 370.500 288.260,370.800 288.193,370.800 287.970 C 370.800 287.747,371.247 287.083,371.792 286.495 C 372.421 285.817,372.645 285.285,372.404 285.044 C 372.162 284.802,372.348 284.496,372.911 284.208 C 373.400 283.958,373.775 283.449,373.744 283.077 C 373.714 282.704,373.860 282.400,374.068 282.400 C 374.277 282.400,374.345 282.235,374.220 282.032 C 374.095 281.830,374.264 281.393,374.596 281.061 C 374.928 280.729,375.200 280.281,375.200 280.066 C 375.200 279.851,375.546 278.984,375.970 278.138 C 376.393 277.292,376.969 275.757,377.249 274.726 C 377.530 273.695,377.878 272.925,378.024 273.015 C 378.169 273.104,378.240 272.749,378.183 272.224 C 378.125 271.700,378.294 270.850,378.557 270.335 C 378.821 269.821,379.089 268.503,379.154 267.407 C 379.219 266.310,379.410 265.140,379.579 264.807 C 380.079 263.820,380.123 253.600,379.628 253.600 C 379.372 253.600,379.200 252.637,379.200 251.200 C 379.200 249.867,379.022 248.800,378.800 248.800 C 378.580 248.800,378.400 248.260,378.400 247.600 C 378.400 246.940,378.220 246.400,378.000 246.400 C 377.780 246.400,377.621 246.265,377.647 246.100 C 377.853 244.796,377.544 243.068,377.200 243.600 C 376.912 244.045,376.811 243.807,376.806 242.676 C 376.802 241.764,376.640 241.252,376.400 241.400 C 376.173 241.540,376.000 241.204,376.000 240.624 C 376.000 240.061,375.820 239.600,375.600 239.600 C 375.380 239.600,375.200 239.276,375.200 238.880 C 375.200 238.484,374.984 237.944,374.720 237.680 C 374.456 237.416,374.379 237.200,374.549 237.200 C 374.718 237.200,374.573 236.915,374.225 236.568 C 373.877 236.220,373.695 235.770,373.820 235.568 C 373.945 235.365,373.878 235.200,373.670 235.200 C 373.463 235.200,373.194 234.822,373.074 234.360 C 372.932 233.819,372.678 233.628,372.359 233.825 C 372.012 234.040,371.942 233.928,372.125 233.450 C 372.287 233.029,372.161 232.683,371.796 232.543 C 371.471 232.418,371.304 232.155,371.426 231.958 C 371.548 231.761,371.347 231.600,370.981 231.600 C 370.613 231.600,370.400 231.376,370.504 231.100 C 370.609 230.825,370.178 230.158,369.547 229.619 C 368.916 229.079,368.400 228.496,368.400 228.323 C 368.400 227.780,367.045 226.400,366.511 226.400 C 366.230 226.400,366.045 226.190,366.100 225.933 C 366.155 225.676,365.769 225.241,365.242 224.967 C 364.715 224.693,363.905 224.031,363.442 223.497 C 362.979 222.963,362.190 222.308,361.689 222.043 C 361.188 221.777,360.883 221.389,361.012 221.180 C 361.142 220.971,360.877 220.800,360.424 220.800 C 359.971 220.800,359.600 220.609,359.600 220.376 C 359.600 220.143,359.420 220.064,359.200 220.200 C 358.980 220.336,358.800 220.260,358.800 220.031 C 358.800 219.802,358.321 219.495,357.735 219.348 C 357.149 219.201,356.384 218.836,356.035 218.537 C 355.686 218.238,355.260 217.999,355.090 218.006 C 354.919 218.013,354.334 217.538,353.790 216.951 C 353.245 216.364,352.800 216.089,352.800 216.342 C 352.800 216.594,352.609 216.800,352.376 216.800 C 352.143 216.800,352.051 216.641,352.171 216.446 C 352.389 216.095,350.781 215.272,349.349 215.002 C 348.937 214.925,348.555 214.825,348.500 214.781 C 348.342 214.653,347.656 214.504,346.976 214.450 C 346.622 214.422,346.473 214.206,346.631 213.950 C 346.824 213.638,346.465 213.552,345.461 213.669 C 344.664 213.762,343.953 213.660,343.881 213.443 C 343.809 213.226,343.041 212.986,342.175 212.909 C 341.309 212.833,340.285 212.738,339.900 212.699 C 339.515 212.660,339.200 212.453,339.200 212.238 C 339.200 212.023,338.957 212.179,338.661 212.584 C 338.240 213.160,338.051 213.207,337.799 212.799 C 337.572 212.431,337.632 212.372,338.000 212.600 C 338.346 212.814,338.427 212.767,338.238 212.462 C 338.081 212.208,337.503 212.000,336.953 212.000 C 336.291 212.000,336.051 212.158,336.242 212.468 C 336.442 212.791,336.305 212.849,335.798 212.654 C 335.359 212.486,334.933 212.579,334.738 212.886 C 334.487 213.283,334.411 213.263,334.406 212.800 C 334.402 212.349,333.912 212.200,332.434 212.200 C 330.987 212.200,330.570 212.323,330.853 212.664 C 331.101 212.963,331.098 213.216,330.844 213.373 C 330.627 213.507,330.303 213.367,330.125 213.061 C 329.563 212.098,328.113 211.881,327.599 212.682 C 327.179 213.339,327.158 213.341,327.357 212.700 C 327.477 212.315,327.401 212.000,327.187 212.000 C 326.974 212.000,326.800 212.380,326.800 212.843 M322.243 213.433 C 321.913 214.293,321.933 214.400,322.424 214.400 C 322.657 214.400,322.736 214.220,322.600 214.000 C 322.464 213.780,322.543 213.600,322.776 213.600 C 323.009 213.600,323.200 213.420,323.200 213.200 C 323.200 212.567,322.511 212.735,322.243 213.433 M320.400 213.563 C 320.400 213.762,319.995 213.836,319.500 213.728 C 318.777 213.569,318.718 213.615,319.200 213.959 C 319.641 214.275,319.662 214.389,319.276 214.394 C 318.988 214.397,318.876 214.599,319.026 214.843 C 319.183 215.097,319.407 215.129,319.550 214.920 C 319.688 214.718,320.245 214.249,320.789 213.877 C 321.555 213.352,321.623 213.200,321.089 213.200 C 320.710 213.200,320.400 213.363,320.400 213.563 M317.200 215.000 C 317.200 215.330,317.361 215.600,317.557 215.600 C 317.754 215.600,318.018 215.330,318.145 215.000 C 318.285 214.635,318.145 214.400,317.787 214.400 C 317.464 214.400,317.200 214.670,317.200 215.000 M326.207 244.873 C 325.770 245.297,325.109 245.565,324.737 245.468 C 324.284 245.349,324.130 245.474,324.273 245.845 C 324.562 246.599,325.458 246.546,325.761 245.758 C 325.934 245.306,326.296 245.187,326.979 245.359 C 327.514 245.493,328.061 245.424,328.196 245.206 C 328.342 244.970,328.164 244.916,327.755 245.073 C 327.309 245.244,327.164 245.182,327.341 244.896 C 327.832 244.101,327.018 244.085,326.207 244.873 M323.600 246.757 C 323.600 247.027,323.420 247.136,323.200 247.000 C 322.980 246.864,322.800 247.053,322.800 247.419 C 322.800 247.837,322.584 248.003,322.220 247.863 C 321.833 247.715,321.715 247.833,321.863 248.220 C 321.986 248.539,322.242 248.800,322.434 248.800 C 322.929 248.800,324.159 246.826,323.854 246.521 C 323.714 246.381,323.600 246.487,323.600 246.757 M319.674 249.222 C 319.165 249.426,318.861 249.775,318.998 249.997 C 319.135 250.218,319.087 250.400,318.890 250.400 C 318.694 250.400,318.533 250.660,318.533 250.978 C 318.533 251.296,318.728 251.521,318.967 251.478 C 319.205 251.435,319.351 251.638,319.290 251.930 C 319.230 252.221,319.344 252.358,319.545 252.234 C 320.001 251.952,320.893 252.974,320.518 253.348 C 319.869 253.998,320.067 254.792,320.784 254.409 C 321.175 254.199,321.608 254.142,321.747 254.281 C 321.886 254.420,322.000 254.311,322.000 254.040 C 322.000 253.722,321.680 253.634,321.100 253.792 C 320.305 254.009,320.284 253.986,320.919 253.589 C 321.582 253.174,321.539 253.052,320.362 252.024 C 319.161 250.976,319.021 249.692,320.155 250.127 C 320.417 250.228,320.629 249.972,320.629 249.555 C 320.629 249.140,320.622 248.811,320.614 248.825 C 320.606 248.839,320.183 249.018,319.674 249.222 M322.202 254.797 C 321.986 255.146,322.032 255.228,322.338 255.038 C 322.592 254.881,322.800 254.931,322.800 255.148 C 322.800 255.365,323.026 255.781,323.303 256.071 C 323.579 256.362,324.299 257.199,324.903 257.931 C 325.506 258.663,326.000 259.149,326.000 259.013 C 326.000 258.876,326.469 259.233,327.042 259.806 C 328.223 260.987,328.777 260.873,327.905 259.628 C 327.588 259.176,327.234 258.900,327.118 259.016 C 326.903 259.230,324.608 256.976,323.269 255.235 C 322.703 254.498,322.451 254.395,322.202 254.797 M330.559 263.260 C 330.652 264.484,332.245 266.300,332.757 265.766 C 332.890 265.627,332.595 265.240,332.100 264.907 C 331.032 264.189,330.907 263.531,331.900 263.850 C 332.309 263.982,332.432 263.935,332.196 263.738 C 331.974 263.552,331.494 263.086,331.128 262.703 C 330.501 262.046,330.468 262.079,330.559 263.260 M336.000 267.924 C 336.000 268.348,337.545 269.797,337.749 269.564 C 337.828 269.474,337.467 268.989,336.946 268.486 C 336.426 267.983,336.000 267.730,336.000 267.924 M340.800 272.700 C 340.800 273.104,340.612 273.128,340.000 272.800 C 339.560 272.565,339.200 272.327,339.200 272.272 C 339.200 272.217,339.560 272.171,340.000 272.171 C 340.440 272.171,340.800 272.409,340.800 272.700 M306.091 306.273 C 305.151 307.223,304.521 307.995,304.691 307.989 C 305.185 307.972,308.061 305.176,307.924 304.845 C 307.856 304.680,307.031 305.322,306.091 306.273 M292.840 319.440 C 291.669 320.787,291.980 321.098,293.200 319.800 C 293.715 319.252,294.047 318.714,293.938 318.605 C 293.829 318.495,293.335 318.871,292.840 319.440 M286.408 325.824 C 285.863 326.361,285.593 326.794,285.808 326.787 C 286.264 326.771,288.000 325.384,288.000 325.036 C 288.000 324.562,287.377 324.871,286.408 325.824 M328.000 330.843 C 328.000 331.086,327.750 331.190,327.445 331.073 C 327.055 330.923,326.951 331.090,327.093 331.636 C 327.289 332.385,327.322 332.382,328.048 331.544 C 328.909 330.552,328.956 330.400,328.400 330.400 C 328.180 330.400,328.000 330.599,328.000 330.843 M326.006 331.487 C 326.003 331.770,325.706 331.880,325.300 331.750 C 324.758 331.575,324.724 331.613,325.151 331.918 C 325.454 332.134,325.601 332.474,325.478 332.674 C 325.354 332.874,325.438 333.300,325.664 333.619 C 326.002 334.096,326.036 334.077,325.855 333.513 C 325.600 332.717,326.231 332.146,326.534 332.898 C 326.673 333.243,326.745 333.212,326.762 332.800 C 326.776 332.470,326.613 331.930,326.400 331.600 C 326.155 331.221,326.010 331.179,326.006 331.487 M322.271 335.840 C 322.406 336.193,322.265 336.640,321.958 336.834 C 321.152 337.345,320.302 337.283,320.638 336.738 C 320.802 336.474,320.749 336.384,320.515 336.529 C 320.291 336.667,320.199 337.262,320.312 337.850 C 320.441 338.526,320.364 338.825,320.103 338.664 C 319.623 338.367,318.680 339.346,319.070 339.737 C 319.215 339.882,319.033 340.000,318.667 340.000 C 318.300 340.000,318.021 340.135,318.047 340.300 C 318.169 341.071,317.931 341.195,317.100 340.792 C 316.231 340.371,316.227 340.378,316.984 340.983 C 317.723 341.575,317.910 341.470,320.284 339.117 C 322.549 336.872,323.458 335.200,322.413 335.200 C 322.199 335.200,322.136 335.488,322.271 335.840 M314.086 344.439 C 313.378 345.100,312.802 345.856,312.803 346.120 C 312.805 346.384,313.456 345.915,314.249 345.079 C 315.997 343.234,315.878 342.764,314.086 344.439 M264.089 347.858 C 263.367 348.596,262.929 349.200,263.114 349.200 C 263.537 349.200,265.802 346.860,265.571 346.662 C 265.477 346.582,264.810 347.120,264.089 347.858 " stroke="none" fill="#54acfc" fill-rule="evenodd"></path></g></svg>