<svg xmlns="http://www.w3.org/2000/svg" height="24px"  width="24px" viewBox="0, 0, 400,400" ><g><path d="M88.400 19.983 C 87.850 20.159,86.590 20.544,85.600 20.838 C 75.769 23.759,67.959 33.173,66.394 43.988 C 65.883 47.520,65.883 352.480,66.394 356.012 C 67.959 366.827,75.779 376.252,85.600 379.160 C 86.590 379.453,87.922 379.852,88.560 380.047 C 89.198 380.241,90.863 380.400,92.260 380.400 L 94.800 380.400 94.800 231.224 C 94.800 132.204,94.934 81.964,95.200 81.800 C 95.420 81.664,95.600 80.663,95.600 79.576 C 95.600 78.489,95.780 77.600,96.000 77.600 C 96.220 77.600,96.400 76.880,96.400 76.000 C 96.400 75.120,96.580 74.400,96.800 74.400 C 97.020 74.400,97.200 73.950,97.200 73.400 C 97.200 72.850,97.380 72.400,97.600 72.400 C 97.820 72.400,98.000 72.040,98.000 71.600 C 98.000 71.160,98.180 70.800,98.400 70.800 C 98.620 70.800,98.800 70.440,98.800 70.000 C 98.800 69.560,98.980 69.200,99.200 69.200 C 99.420 69.200,99.600 68.840,99.600 68.400 C 99.600 67.960,99.780 67.600,100.000 67.600 C 100.220 67.600,100.400 67.364,100.400 67.075 C 100.400 66.787,100.760 66.164,101.200 65.692 C 101.640 65.220,102.000 64.668,102.000 64.465 C 102.000 64.262,102.720 63.355,103.600 62.448 C 104.479 61.542,105.069 60.800,104.911 60.800 C 104.752 60.800,105.025 60.518,105.518 60.173 C 106.010 59.828,106.310 59.378,106.183 59.173 C 106.056 58.968,106.148 58.800,106.387 58.800 C 106.758 58.800,108.374 57.497,110.209 55.719 C 110.481 55.455,110.816 55.350,110.952 55.486 C 111.089 55.622,111.200 55.513,111.200 55.243 C 111.200 54.973,111.380 54.864,111.600 55.000 C 111.820 55.136,112.000 55.057,112.000 54.824 C 112.000 54.591,112.236 54.400,112.525 54.400 C 112.813 54.400,113.436 54.040,113.908 53.600 C 114.380 53.160,115.044 52.800,115.383 52.800 C 115.722 52.800,116.000 52.620,116.000 52.400 C 116.000 52.180,116.360 52.000,116.800 52.000 C 117.240 52.000,117.600 51.820,117.600 51.600 C 117.600 51.380,118.050 51.200,118.600 51.200 C 119.150 51.200,119.600 51.020,119.600 50.800 C 119.600 50.580,120.140 50.400,120.800 50.400 C 121.460 50.400,122.000 50.220,122.000 50.000 C 122.000 49.780,122.720 49.600,123.600 49.600 C 124.480 49.600,125.200 49.420,125.200 49.200 C 125.200 48.967,126.533 48.800,128.400 48.800 C 130.267 48.800,131.600 48.633,131.600 48.400 C 131.600 48.136,147.667 48.000,179.000 48.000 C 210.333 48.000,226.400 48.136,226.400 48.400 C 226.400 48.968,230.542 48.898,231.120 48.320 C 231.475 47.965,231.600 44.169,231.600 33.720 L 231.600 19.600 160.500 19.632 C 121.395 19.649,88.950 19.807,88.400 19.983 " stroke="none" fill="#d3e3f3" fill-rule="evenodd"></path><path d="M125.600 164.000 C 125.600 164.220,124.880 164.400,124.000 164.400 C 123.120 164.400,122.400 164.580,122.400 164.800 C 122.400 165.020,122.125 165.200,121.789 165.200 C 120.996 165.200,117.600 168.596,117.600 169.389 C 117.600 169.725,117.420 170.000,117.200 170.000 C 116.959 170.000,116.800 171.667,116.800 174.200 C 116.800 176.733,116.959 178.400,117.200 178.400 C 117.420 178.400,117.600 178.675,117.600 179.011 C 117.600 179.804,120.996 183.200,121.789 183.200 C 122.125 183.200,122.400 183.336,122.400 183.503 C 122.400 184.783,212.214 185.672,213.000 184.400 C 213.136 184.180,213.687 184.000,214.224 184.000 C 214.761 184.000,215.200 183.820,215.200 183.600 C 215.200 183.380,215.475 183.200,215.811 183.200 C 216.591 183.200,220.000 179.810,220.000 179.034 C 220.000 178.711,220.180 178.336,220.400 178.200 C 221.026 177.813,220.885 171.501,220.215 169.897 C 219.506 168.200,216.706 165.200,215.831 165.200 C 215.484 165.200,215.200 165.020,215.200 164.800 C 215.200 164.580,214.491 164.400,213.624 164.400 C 212.757 164.400,211.936 164.220,211.800 164.000 C 211.638 163.737,196.796 163.600,168.576 163.600 C 140.192 163.600,125.600 163.736,125.600 164.000 M122.400 236.800 C 122.400 237.020,122.125 237.200,121.789 237.200 C 120.996 237.200,117.600 240.596,117.600 241.389 C 117.600 241.725,117.420 242.000,117.200 242.000 C 116.959 242.000,116.800 243.667,116.800 246.200 C 116.800 248.733,116.959 250.400,117.200 250.400 C 117.420 250.400,117.600 250.720,117.600 251.112 C 117.600 251.503,117.960 252.083,118.400 252.400 C 118.840 252.717,119.200 253.207,119.200 253.488 C 119.200 253.770,119.352 254.000,119.538 254.000 C 119.724 254.000,120.399 254.450,121.038 255.000 C 121.677 255.549,122.594 255.999,123.076 256.000 C 123.558 256.000,124.064 256.180,124.200 256.400 C 124.543 256.954,295.600 256.954,295.600 256.400 C 295.600 256.180,296.140 256.000,296.800 256.000 C 297.460 256.000,298.000 255.820,298.000 255.600 C 298.000 255.380,298.252 255.200,298.560 255.200 C 299.288 255.200,302.000 252.488,302.000 251.760 C 302.000 251.452,302.180 251.200,302.400 251.200 C 302.620 251.200,302.800 250.660,302.800 250.000 C 302.800 249.340,302.980 248.800,303.200 248.800 C 303.694 248.800,303.732 244.648,303.247 243.695 C 303.052 243.313,302.647 242.462,302.347 241.805 C 301.651 240.284,298.613 237.200,297.811 237.200 C 297.475 237.200,297.200 237.020,297.200 236.800 C 297.200 236.535,267.800 236.400,209.800 236.400 C 151.800 236.400,122.400 236.535,122.400 236.800 M122.203 309.027 C 120.244 310.052,118.400 311.600,118.400 312.220 C 118.400 312.539,118.220 312.800,118.000 312.800 C 117.780 312.800,117.600 313.160,117.600 313.600 C 117.600 314.040,117.420 314.400,117.200 314.400 C 116.612 314.400,116.697 321.618,117.300 322.917 C 117.575 323.509,117.935 323.995,118.100 323.997 C 118.265 323.999,118.400 324.188,118.400 324.418 C 118.400 325.060,120.286 326.800,120.982 326.800 C 121.322 326.800,121.600 326.980,121.600 327.200 C 121.600 327.420,121.960 327.600,122.400 327.600 C 122.840 327.600,123.200 327.780,123.200 328.000 C 123.200 328.265,152.333 328.400,209.800 328.400 C 267.267 328.400,296.400 328.265,296.400 328.000 C 296.400 327.780,296.821 327.600,297.336 327.600 C 298.974 327.600,302.800 323.419,302.800 321.629 C 302.800 321.199,302.980 320.736,303.200 320.600 C 303.420 320.464,303.600 319.373,303.600 318.176 C 303.600 316.979,303.420 316.000,303.200 316.000 C 302.980 316.000,302.800 315.460,302.800 314.800 C 302.800 314.140,302.620 313.600,302.400 313.600 C 302.180 313.600,302.000 313.309,302.000 312.954 C 302.000 312.224,299.305 309.600,298.555 309.600 C 298.286 309.600,297.992 309.375,297.900 309.100 C 297.618 308.253,123.821 308.181,122.203 309.027 " stroke="none" fill="#1ce4bc" fill-rule="evenodd"></path><path d="M83.300 0.290 C 82.365 0.376,81.600 0.616,81.600 0.823 C 81.600 1.030,81.060 1.200,80.400 1.200 C 79.740 1.200,79.200 1.380,79.200 1.600 C 79.200 1.820,78.660 2.000,78.000 2.000 C 77.340 2.000,76.800 2.180,76.800 2.400 C 76.800 2.620,76.429 2.800,75.976 2.800 C 75.523 2.800,75.264 2.980,75.400 3.200 C 75.540 3.427,75.204 3.600,74.624 3.600 C 74.061 3.600,73.600 3.780,73.600 4.000 C 73.600 4.220,73.330 4.400,73.000 4.400 C 72.670 4.400,72.400 4.580,72.400 4.800 C 72.400 5.020,71.984 5.200,71.475 5.200 C 70.967 5.200,70.164 5.560,69.692 6.000 C 69.220 6.440,68.556 6.800,68.217 6.800 C 67.878 6.800,67.600 6.959,67.600 7.153 C 67.600 7.348,67.240 7.601,66.800 7.716 C 66.360 7.831,66.000 8.231,66.000 8.605 C 66.000 9.009,65.782 9.202,65.465 9.080 C 64.480 8.702,58.400 14.169,58.400 15.434 C 58.400 15.745,58.124 16.000,57.787 16.000 C 57.451 16.000,57.057 16.315,56.912 16.700 C 56.767 17.085,56.143 17.877,55.525 18.460 C 54.906 19.044,54.400 19.809,54.400 20.160 C 54.400 20.512,54.220 20.800,54.000 20.800 C 53.780 20.800,53.600 21.160,53.600 21.600 C 53.600 22.040,53.420 22.400,53.200 22.400 C 52.980 22.400,52.800 22.681,52.800 23.024 C 52.800 23.367,52.620 23.536,52.400 23.400 C 52.180 23.264,52.000 23.523,52.000 23.976 C 52.000 24.429,51.854 24.800,51.675 24.800 C 51.496 24.800,51.102 25.430,50.800 26.200 C 50.498 26.970,50.104 27.600,49.925 27.600 C 49.746 27.600,49.600 28.050,49.600 28.600 C 49.600 29.150,49.420 29.600,49.200 29.600 C 48.980 29.600,48.800 30.151,48.800 30.824 C 48.800 31.557,48.636 31.946,48.390 31.794 C 48.165 31.655,48.006 31.689,48.037 31.870 C 48.266 33.183,47.945 35.333,47.600 34.800 C 47.309 34.350,47.211 34.556,47.206 35.620 C 47.203 36.401,46.975 37.282,46.700 37.579 C 46.294 38.016,46.312 38.058,46.800 37.800 C 47.288 37.542,47.306 37.584,46.900 38.021 C 46.625 38.318,46.400 39.503,46.400 40.656 C 46.400 41.809,46.220 42.864,46.001 42.999 C 45.737 43.163,45.602 96.210,45.602 200.046 C 45.602 304.212,45.736 356.763,46.001 356.599 C 46.250 356.445,46.400 357.307,46.400 358.896 C 46.400 360.377,46.609 361.665,46.900 361.979 C 47.306 362.416,47.288 362.458,46.800 362.200 C 46.312 361.942,46.294 361.984,46.700 362.421 C 46.975 362.718,47.200 363.565,47.200 364.304 C 47.200 365.097,47.364 365.546,47.600 365.400 C 47.941 365.189,48.232 367.007,48.037 368.130 C 48.006 368.311,48.165 368.345,48.390 368.206 C 48.635 368.055,48.800 368.435,48.800 369.153 C 48.800 369.813,48.980 370.464,49.200 370.600 C 49.420 370.736,49.600 371.197,49.600 371.624 C 49.600 372.051,49.746 372.400,49.925 372.400 C 50.104 372.400,50.498 373.030,50.800 373.800 C 51.102 374.570,51.496 375.200,51.675 375.200 C 51.854 375.200,52.000 375.571,52.000 376.024 C 52.000 376.477,52.180 376.736,52.400 376.600 C 52.620 376.464,52.800 376.633,52.800 376.976 C 52.800 377.319,52.980 377.600,53.200 377.600 C 53.420 377.600,53.600 377.883,53.600 378.229 C 53.600 378.574,53.872 379.129,54.204 379.461 C 54.536 379.793,54.702 380.234,54.574 380.442 C 54.446 380.650,54.489 380.770,54.670 380.710 C 54.852 380.649,55.033 380.749,55.074 380.930 C 55.114 381.112,55.487 381.562,55.901 381.930 C 56.316 382.299,56.772 382.915,56.915 383.300 C 57.058 383.685,57.451 384.000,57.787 384.000 C 58.124 384.000,58.400 384.277,58.400 384.615 C 58.400 385.886,65.650 392.264,66.499 391.739 C 66.749 391.584,66.806 391.666,66.638 391.938 C 66.469 392.212,66.607 392.400,66.976 392.400 C 67.319 392.400,67.600 392.580,67.600 392.800 C 67.600 393.020,67.920 393.200,68.312 393.200 C 68.703 393.200,69.283 393.560,69.600 394.000 C 69.917 394.440,70.486 394.800,70.865 394.800 C 71.243 394.800,71.664 394.980,71.800 395.200 C 71.936 395.420,72.397 395.600,72.824 395.600 C 73.251 395.600,73.600 395.780,73.600 396.000 C 73.600 396.220,73.870 396.400,74.200 396.400 C 74.530 396.400,74.800 396.580,74.800 396.800 C 74.800 397.020,75.250 397.200,75.800 397.200 C 76.350 397.200,76.800 397.358,76.800 397.550 C 76.800 397.743,77.287 397.900,77.883 397.900 C 78.479 397.900,79.034 398.102,79.117 398.350 C 79.199 398.597,79.892 398.800,80.657 398.800 C 81.422 398.800,81.947 398.963,81.824 399.162 C 81.328 399.963,94.302 400.040,204.000 399.884 C 319.776 399.720,319.323 399.723,318.959 399.133 C 318.845 398.950,319.393 398.800,320.176 398.800 C 320.959 398.800,321.600 398.620,321.600 398.400 C 321.600 398.180,321.924 398.000,322.320 398.000 C 323.214 398.000,325.193 397.106,325.197 396.700 C 325.199 396.535,325.549 396.400,325.976 396.400 C 326.403 396.400,326.864 396.220,327.000 396.000 C 327.136 395.780,327.687 395.600,328.224 395.600 C 328.761 395.600,329.200 395.420,329.200 395.200 C 329.200 394.980,329.494 394.800,329.853 394.800 C 330.212 394.800,330.797 394.484,331.153 394.097 C 331.509 393.711,332.295 393.140,332.900 392.830 C 333.505 392.519,334.000 392.115,334.000 391.932 C 334.000 391.750,334.278 391.600,334.617 391.600 C 335.290 391.600,335.677 391.322,338.029 389.147 C 338.893 388.348,339.600 387.775,339.600 387.875 C 339.600 387.975,339.870 387.787,340.200 387.457 C 340.530 387.127,340.800 386.634,340.800 386.362 C 340.800 386.090,340.911 385.978,341.048 386.114 C 341.351 386.418,342.400 385.421,342.400 384.829 C 342.400 384.593,342.580 384.400,342.800 384.400 C 343.020 384.400,343.200 384.202,343.200 383.960 C 343.200 383.719,343.740 383.017,344.400 382.400 C 345.060 381.783,345.600 381.031,345.600 380.728 C 345.600 380.425,345.960 379.917,346.400 379.600 C 346.840 379.283,347.200 378.703,347.200 378.312 C 347.200 377.920,347.380 377.600,347.600 377.600 C 347.820 377.600,348.000 377.280,348.000 376.888 C 348.000 376.497,348.360 375.917,348.800 375.600 C 349.240 375.283,349.600 374.703,349.600 374.312 C 349.600 373.920,349.735 373.599,349.900 373.597 C 350.306 373.593,351.200 371.614,351.200 370.720 C 351.200 370.324,351.380 370.000,351.600 370.000 C 351.820 370.000,352.000 369.460,352.000 368.800 C 352.000 368.140,352.180 367.600,352.400 367.600 C 352.620 367.600,352.800 367.060,352.800 366.400 C 352.800 365.740,352.980 365.200,353.200 365.200 C 353.420 365.200,353.600 364.289,353.600 363.176 C 353.600 362.063,353.753 361.247,353.940 361.363 C 354.127 361.478,354.327 360.274,354.385 358.686 C 354.443 357.099,354.500 355.575,354.512 355.300 C 354.524 355.025,354.638 354.800,354.767 354.800 C 355.051 354.800,354.830 111.975,354.544 110.000 C 354.307 108.362,353.184 106.000,352.642 106.000 C 352.436 106.000,352.375 105.891,352.508 105.758 C 352.822 105.445,346.405 99.365,345.914 99.510 C 345.708 99.570,345.640 99.459,345.761 99.263 C 346.059 98.780,344.621 97.520,344.203 97.899 C 344.021 98.065,343.990 97.993,344.134 97.741 C 344.429 97.226,342.249 94.685,341.853 95.081 C 341.714 95.220,341.600 95.023,341.600 94.643 C 341.600 94.263,341.420 94.064,341.200 94.200 C 340.980 94.336,340.800 94.150,340.800 93.786 C 340.800 93.423,340.442 93.031,340.004 92.917 C 339.567 92.803,339.308 92.550,339.428 92.355 C 339.549 92.160,339.356 92.000,339.000 92.000 C 338.644 92.000,338.451 91.840,338.572 91.645 C 338.692 91.450,338.433 91.197,337.996 91.083 C 337.558 90.969,337.200 90.577,337.200 90.214 C 337.200 89.850,337.020 89.664,336.800 89.800 C 336.580 89.936,336.400 89.846,336.400 89.600 C 336.400 89.354,336.192 89.281,335.938 89.438 C 335.673 89.602,335.584 89.549,335.730 89.313 C 336.068 88.766,334.677 87.200,333.853 87.200 C 333.494 87.200,333.245 87.052,333.300 86.870 C 333.355 86.689,332.500 85.587,331.400 84.423 C 330.300 83.258,328.747 81.615,327.949 80.771 C 327.150 79.927,326.385 79.348,326.249 79.485 C 326.112 79.621,326.000 79.510,326.000 79.238 C 326.000 78.595,324.969 77.564,324.648 77.886 C 324.511 78.022,324.397 77.788,324.394 77.367 C 324.389 76.725,324.324 76.698,324.000 77.200 C 323.669 77.713,323.611 77.698,323.606 77.100 C 323.603 76.715,323.390 76.400,323.133 76.400 C 322.877 76.400,322.776 76.291,322.909 76.158 C 323.225 75.842,321.383 74.000,320.752 74.000 C 320.485 74.000,320.372 73.894,320.502 73.765 C 320.807 73.460,310.296 62.872,309.900 63.085 C 309.735 63.174,309.600 62.956,309.600 62.600 C 309.600 62.244,309.420 62.064,309.200 62.200 C 308.980 62.336,308.800 62.248,308.800 62.005 C 308.800 61.428,304.972 57.600,304.395 57.600 C 304.152 57.600,304.064 57.420,304.200 57.200 C 304.336 56.980,304.156 56.800,303.800 56.800 C 303.444 56.800,303.264 56.620,303.400 56.400 C 303.536 56.180,303.356 56.000,303.000 56.000 C 302.644 56.000,302.464 55.820,302.600 55.600 C 302.736 55.380,302.556 55.200,302.200 55.200 C 301.844 55.200,301.626 55.065,301.716 54.900 C 301.930 54.504,295.342 47.992,295.036 48.297 C 294.906 48.427,294.800 48.223,294.800 47.843 C 294.800 47.463,294.620 47.264,294.400 47.400 C 294.180 47.536,294.000 47.356,294.000 47.000 C 294.000 46.644,293.820 46.464,293.600 46.600 C 293.380 46.736,293.200 46.556,293.200 46.200 C 293.200 45.844,293.020 45.664,292.800 45.800 C 292.580 45.936,292.400 45.806,292.400 45.512 C 292.400 45.217,292.018 44.712,291.551 44.388 C 290.481 43.647,289.953 43.119,289.212 42.049 C 288.888 41.582,288.363 41.200,288.045 41.200 C 287.727 41.200,287.578 41.089,287.714 40.952 C 288.024 40.642,287.015 39.600,286.405 39.600 C 286.156 39.600,286.064 39.420,286.200 39.200 C 286.336 38.980,286.156 38.800,285.800 38.800 C 285.444 38.800,285.264 38.620,285.400 38.400 C 285.536 38.180,285.337 38.000,284.957 38.000 C 284.577 38.000,284.378 37.889,284.514 37.752 C 284.824 37.442,283.815 36.400,283.205 36.400 C 282.956 36.400,282.864 36.220,283.000 36.000 C 283.136 35.780,282.956 35.600,282.600 35.600 C 282.244 35.600,282.030 35.465,282.124 35.300 C 282.349 34.905,280.552 33.181,280.241 33.493 C 280.108 33.625,280.000 33.423,280.000 33.043 C 280.000 32.663,279.820 32.464,279.600 32.600 C 279.380 32.736,279.200 32.644,279.200 32.395 C 279.200 31.785,278.158 30.776,277.848 31.086 C 277.711 31.222,277.600 31.023,277.600 30.643 C 277.600 30.263,277.420 30.064,277.200 30.200 C 276.980 30.336,276.800 30.267,276.800 30.048 C 276.800 29.527,270.473 23.200,269.952 23.200 C 269.733 23.200,269.635 23.065,269.734 22.900 C 269.971 22.509,268.960 21.574,268.643 21.891 C 268.509 22.024,268.400 21.833,268.400 21.467 C 268.400 21.100,268.175 20.845,267.900 20.900 C 267.625 20.955,267.445 20.775,267.500 20.500 C 267.555 20.225,267.375 20.045,267.100 20.100 C 266.825 20.155,266.645 19.975,266.700 19.700 C 266.755 19.425,266.575 19.245,266.300 19.300 C 266.025 19.355,265.849 19.162,265.910 18.870 C 265.970 18.579,265.850 18.446,265.642 18.574 C 265.120 18.896,263.931 17.635,264.258 17.106 C 264.408 16.863,264.337 16.792,264.094 16.942 C 263.535 17.288,262.312 16.065,262.658 15.506 C 262.815 15.251,262.736 15.193,262.462 15.362 C 262.188 15.531,262.000 15.393,262.000 15.024 C 262.000 14.681,261.775 14.445,261.500 14.500 C 261.225 14.555,261.045 14.375,261.100 14.100 C 261.155 13.825,260.919 13.600,260.576 13.600 C 260.233 13.600,260.064 13.420,260.200 13.200 C 260.336 12.980,260.156 12.800,259.800 12.800 C 259.444 12.800,259.243 12.655,259.352 12.477 C 259.462 12.299,259.125 11.833,258.604 11.442 C 257.047 10.273,254.400 7.568,254.400 7.146 C 254.400 6.930,254.220 6.864,254.000 7.000 C 253.780 7.136,253.600 6.956,253.600 6.600 C 253.600 6.244,253.420 6.064,253.200 6.200 C 252.980 6.336,252.797 6.122,252.794 5.724 C 252.789 5.110,252.729 5.091,252.400 5.600 C 252.088 6.083,252.011 6.019,252.006 5.276 C 252.003 4.764,251.822 4.463,251.600 4.600 C 251.380 4.736,251.200 4.567,251.200 4.224 C 251.200 3.881,250.923 3.600,250.584 3.600 C 250.245 3.600,249.240 2.835,248.351 1.900 L 246.734 0.200 165.867 0.167 C 121.390 0.149,84.235 0.204,83.300 0.290 M232.309 33.200 C 232.416 47.501,232.402 47.814,231.599 48.473 C 230.427 49.434,230.845 82.800,232.028 82.800 C 232.233 82.800,232.400 82.991,232.400 83.224 C 232.400 83.457,232.175 83.520,231.900 83.365 C 231.500 83.139,231.500 83.190,231.900 83.621 C 232.175 83.918,232.400 84.844,232.400 85.680 C 232.400 86.516,232.580 87.200,232.800 87.200 C 233.020 87.200,233.200 87.729,233.200 88.376 C 233.200 89.023,233.380 89.664,233.600 89.800 C 233.820 89.936,234.000 90.382,234.000 90.790 C 234.000 91.199,234.178 91.593,234.397 91.667 C 234.615 91.740,234.834 92.295,234.884 92.900 C 234.934 93.505,235.115 94.000,235.287 94.000 C 235.459 94.000,235.600 94.278,235.600 94.617 C 235.600 94.956,235.960 95.620,236.400 96.092 C 237.101 96.844,237.276 97.330,237.174 98.230 C 237.159 98.357,237.474 98.764,237.874 99.135 C 238.571 99.781,239.128 100.635,240.268 102.800 C 240.558 103.350,240.800 103.620,240.805 103.400 C 240.811 103.180,241.343 103.840,241.988 104.867 C 242.632 105.893,243.553 106.858,244.033 107.010 C 244.716 107.227,244.786 107.364,244.353 107.638 C 243.918 107.913,243.955 107.989,244.524 107.994 C 244.922 107.997,245.170 108.135,245.076 108.300 C 244.982 108.465,245.332 109.011,245.853 109.514 C 246.374 110.017,246.800 110.332,246.800 110.214 C 246.800 110.096,247.142 110.315,247.560 110.700 C 249.527 112.513,250.713 113.446,251.712 113.968 C 252.311 114.280,252.800 114.685,252.800 114.868 C 252.800 115.050,253.094 115.200,253.453 115.200 C 253.812 115.200,254.442 115.588,254.853 116.061 C 255.264 116.535,255.600 116.795,255.600 116.639 C 255.600 116.384,257.905 117.505,258.400 118.000 C 258.995 118.595,260.517 119.200,261.418 119.200 C 262.002 119.200,262.340 119.373,262.200 119.600 C 262.060 119.826,262.388 120.000,262.953 120.000 C 263.503 120.000,264.064 120.180,264.200 120.400 C 264.336 120.620,264.977 120.800,265.624 120.800 C 266.271 120.800,266.800 120.980,266.800 121.200 C 266.800 121.420,267.509 121.600,268.376 121.600 C 269.243 121.600,270.047 121.753,270.162 121.939 C 270.277 122.125,271.683 122.316,273.286 122.362 C 274.889 122.408,276.371 122.615,276.580 122.823 C 276.811 123.052,288.146 123.200,305.480 123.200 L 334.000 123.200 334.000 240.400 C 334.000 318.267,333.866 357.600,333.600 357.600 C 333.380 357.600,333.200 358.219,333.200 358.976 C 333.200 359.733,333.020 360.464,332.800 360.600 C 332.580 360.736,332.400 361.287,332.400 361.824 C 332.400 362.361,332.220 362.800,332.000 362.800 C 331.780 362.800,331.600 363.160,331.600 363.600 C 331.600 364.040,331.420 364.400,331.200 364.400 C 330.980 364.400,330.800 364.732,330.800 365.138 C 330.800 365.544,330.440 366.202,330.000 366.600 C 329.560 366.998,329.200 367.500,329.200 367.715 C 329.200 367.930,328.851 368.409,328.425 368.778 C 327.999 369.148,327.594 369.699,327.525 370.003 C 327.456 370.307,326.815 371.157,326.100 371.891 C 325.385 372.626,324.800 373.401,324.800 373.613 C 324.800 373.826,324.440 374.000,324.000 374.000 C 323.560 374.000,323.200 374.158,323.200 374.351 C 323.200 374.545,322.665 374.925,322.010 375.196 C 321.356 375.467,320.432 376.025,319.958 376.436 C 319.484 376.847,318.940 377.087,318.748 376.968 C 318.557 376.850,318.400 376.943,318.400 377.176 C 318.400 377.409,318.051 377.600,317.624 377.600 C 317.197 377.600,316.736 377.780,316.600 378.000 C 316.464 378.220,315.913 378.400,315.376 378.400 C 314.839 378.400,314.400 378.560,314.400 378.756 C 314.400 379.646,305.174 379.738,203.146 379.867 L 94.893 380.003 94.674 380.840 C 94.476 381.595,94.245 381.655,92.327 381.457 C 88.455 381.055,86.605 380.722,86.220 380.359 C 86.011 380.162,85.437 380.000,84.944 380.000 C 84.451 380.000,83.936 379.820,83.800 379.600 C 83.664 379.380,83.203 379.200,82.776 379.200 C 82.349 379.200,82.000 379.020,82.000 378.800 C 82.000 378.580,81.640 378.400,81.200 378.400 C 80.760 378.400,80.400 378.220,80.400 378.000 C 80.400 377.780,80.164 377.600,79.875 377.600 C 79.587 377.600,78.964 377.240,78.492 376.800 C 78.020 376.360,77.446 376.000,77.217 376.000 C 76.988 376.000,76.800 375.820,76.800 375.600 C 76.800 375.380,76.616 375.200,76.391 375.200 C 74.630 375.200,66.800 364.423,66.800 361.999 C 66.800 361.774,66.641 361.277,66.447 360.895 C 65.223 358.484,65.200 355.547,65.200 200.000 C 65.200 44.453,65.223 41.516,66.447 39.105 C 66.641 38.723,66.800 38.157,66.800 37.846 C 66.800 35.509,74.673 24.800,76.391 24.800 C 76.616 24.800,76.800 24.620,76.800 24.400 C 76.800 24.180,76.988 24.000,77.217 24.000 C 77.446 24.000,78.020 23.640,78.492 23.200 C 78.964 22.760,79.587 22.400,79.875 22.400 C 80.164 22.400,80.400 22.220,80.400 22.000 C 80.400 21.780,80.760 21.600,81.200 21.600 C 81.640 21.600,82.000 21.420,82.000 21.200 C 82.000 20.980,82.349 20.800,82.776 20.800 C 83.203 20.800,83.664 20.620,83.800 20.400 C 83.936 20.180,84.476 20.000,85.000 20.000 C 85.524 20.000,86.064 19.820,86.200 19.600 C 86.336 19.380,87.112 19.197,87.924 19.194 C 88.736 19.191,89.670 19.013,90.000 18.799 C 90.384 18.551,116.124 18.445,161.400 18.505 L 232.200 18.600 232.309 33.200 M252.700 35.300 C 252.645 35.575,252.825 35.755,253.100 35.700 C 253.375 35.645,253.555 35.825,253.500 36.100 C 253.445 36.375,253.625 36.555,253.900 36.500 C 254.175 36.445,254.355 36.625,254.300 36.900 C 254.245 37.175,254.425 37.355,254.700 37.300 C 254.975 37.245,255.200 37.481,255.200 37.824 C 255.200 38.167,255.380 38.336,255.600 38.200 C 255.820 38.064,256.000 38.149,256.000 38.390 C 256.000 38.985,258.660 41.607,258.960 41.307 C 259.092 41.175,259.200 41.285,259.200 41.552 C 259.200 42.158,261.010 44.000,261.605 44.000 C 261.848 44.000,261.936 44.180,261.800 44.400 C 261.664 44.620,261.844 44.800,262.200 44.800 C 262.556 44.800,262.736 44.980,262.600 45.200 C 262.464 45.420,262.644 45.600,263.000 45.600 C 263.356 45.600,263.536 45.780,263.400 46.000 C 263.264 46.220,263.433 46.400,263.776 46.400 C 264.119 46.400,264.355 46.610,264.300 46.867 C 264.245 47.124,264.604 47.545,265.098 47.803 C 265.591 48.061,265.876 48.390,265.731 48.536 C 265.586 48.681,265.767 48.800,266.133 48.800 C 266.500 48.800,266.755 49.025,266.700 49.300 C 266.645 49.575,266.825 49.755,267.100 49.700 C 267.375 49.645,267.555 49.825,267.500 50.100 C 267.445 50.375,267.625 50.555,267.900 50.500 C 268.175 50.445,268.400 50.681,268.400 51.024 C 268.400 51.367,268.580 51.536,268.800 51.400 C 269.020 51.264,269.200 51.444,269.200 51.800 C 269.200 52.156,269.380 52.336,269.600 52.200 C 269.820 52.064,270.000 52.244,270.000 52.600 C 270.000 52.956,270.180 53.136,270.400 53.000 C 270.620 52.864,270.800 53.044,270.800 53.400 C 270.800 53.756,270.980 53.936,271.200 53.800 C 271.420 53.664,271.600 53.844,271.600 54.200 C 271.600 54.556,271.780 54.736,272.000 54.600 C 272.220 54.464,272.400 54.553,272.400 54.797 C 272.400 55.041,273.345 56.122,274.500 57.199 C 278.102 60.557,319.200 101.544,319.200 101.778 C 319.200 101.900,308.940 102.000,296.400 102.000 C 281.467 102.000,273.600 101.862,273.600 101.600 C 273.600 101.380,273.465 101.221,273.300 101.247 C 272.309 101.404,271.190 101.140,271.400 100.800 C 271.538 100.576,271.231 100.400,270.703 100.400 C 269.631 100.400,267.608 99.552,267.603 99.100 C 267.601 98.935,267.240 98.800,266.800 98.800 C 266.360 98.800,266.000 98.620,266.000 98.400 C 266.000 98.180,265.629 98.000,265.176 98.000 C 264.723 98.000,264.464 97.820,264.600 97.600 C 264.736 97.380,264.577 97.200,264.246 97.200 C 263.916 97.200,263.365 96.800,263.023 96.311 C 262.680 95.822,262.400 95.649,262.400 95.927 C 262.400 96.328,262.285 96.326,261.842 95.916 C 261.535 95.632,261.345 95.298,261.420 95.173 C 261.495 95.049,261.023 94.632,260.371 94.247 C 259.719 93.862,259.292 93.374,259.423 93.163 C 259.553 92.953,259.511 92.806,259.330 92.837 C 258.434 92.993,258.000 92.729,258.000 92.029 C 258.000 91.604,257.730 90.987,257.400 90.657 C 257.070 90.327,256.800 89.854,256.800 89.605 C 256.800 89.356,256.620 89.264,256.400 89.400 C 256.180 89.536,256.000 89.277,256.000 88.824 C 256.000 88.371,255.820 88.000,255.600 88.000 C 255.380 88.000,255.200 87.640,255.200 87.200 C 255.200 86.760,255.056 86.400,254.880 86.400 C 254.506 86.400,253.600 84.046,253.600 83.072 C 253.600 82.702,253.420 82.400,253.200 82.400 C 252.980 82.400,252.800 81.680,252.800 80.800 C 252.800 79.920,252.620 79.200,252.400 79.200 C 251.949 79.200,251.817 35.516,252.267 35.067 C 252.667 34.666,252.811 34.743,252.700 35.300 M320.329 122.700 C 312.700 122.761,300.100 122.761,292.329 122.700 C 284.558 122.639,290.800 122.589,306.200 122.589 C 321.600 122.589,327.958 122.639,320.329 122.700 " stroke="none" fill="#0434cc" fill-rule="evenodd"></path><path d="M160.900 19.500 L 231.600 19.602 231.600 33.721 C 231.600 44.451,231.480 47.975,231.100 48.401 C 230.675 48.878,230.704 48.882,231.300 48.432 C 231.944 47.945,232.000 46.750,232.000 33.551 L 232.000 19.200 161.100 19.299 L 90.200 19.398 160.900 19.500 M87.000 20.000 L 86.200 20.344 87.000 20.344 C 87.440 20.344,88.160 20.189,88.600 20.000 L 89.400 19.656 88.600 19.656 C 88.160 19.656,87.440 19.811,87.000 20.000 M84.400 20.800 C 83.867 21.145,83.867 21.188,84.400 21.188 C 84.730 21.188,85.270 21.013,85.600 20.800 C 86.133 20.455,86.133 20.412,85.600 20.412 C 85.270 20.412,84.730 20.587,84.400 20.800 M79.195 23.440 C 74.216 26.719,67.954 34.117,68.007 36.656 C 68.011 36.845,68.511 36.100,69.118 35.000 C 72.052 29.684,78.841 22.800,81.148 22.800 C 81.371 22.800,81.664 22.620,81.800 22.400 C 82.265 21.647,81.381 22.000,79.195 23.440 M66.649 40.215 C 66.512 40.573,66.416 41.256,66.436 41.733 C 66.462 42.347,66.585 42.208,66.859 41.256 C 67.257 39.872,67.094 39.058,66.649 40.215 M65.857 44.300 C 65.530 46.277,65.620 354.650,65.947 356.177 C 66.086 356.825,66.200 286.580,66.200 200.077 C 66.200 113.575,66.179 42.800,66.152 42.800 C 66.126 42.800,65.993 43.475,65.857 44.300 M66.446 358.400 C 66.427 358.950,66.587 359.670,66.800 360.000 C 67.294 360.764,67.294 359.942,66.800 358.400 L 66.480 357.400 66.446 358.400 M68.007 363.344 C 67.955 365.815,75.419 374.605,79.300 376.643 C 80.917 377.492,80.639 377.011,78.900 375.950 C 75.447 373.842,71.657 369.599,69.118 365.000 C 68.511 363.900,68.011 363.155,68.007 363.344 M84.400 379.200 C 84.730 379.413,85.270 379.588,85.600 379.588 C 86.133 379.588,86.133 379.545,85.600 379.200 C 85.270 378.987,84.730 378.812,84.400 378.812 C 83.867 378.812,83.867 378.855,84.400 379.200 M87.000 380.000 C 87.440 380.189,88.160 380.344,88.600 380.344 L 89.400 380.344 88.600 380.000 C 88.160 379.811,87.440 379.656,87.000 379.656 L 86.200 379.656 87.000 380.000 M91.300 380.687 C 91.905 380.778,92.895 380.778,93.500 380.687 C 94.105 380.595,93.610 380.520,92.400 380.520 C 91.190 380.520,90.695 380.595,91.300 380.687 " stroke="none" fill="#839ce4" fill-rule="evenodd"></path><path d="M125.868 19.100 C 145.266 19.157,177.126 19.157,196.668 19.100 C 216.211 19.043,200.340 18.996,161.400 18.996 C 122.460 18.996,106.471 19.043,125.868 19.100 M232.180 33.400 C 232.180 41.100,232.234 44.193,232.299 40.274 C 232.365 36.355,232.365 30.055,232.299 26.274 C 232.234 22.493,232.180 25.700,232.180 33.400 M75.375 26.100 L 74.200 27.400 75.500 26.225 C 76.712 25.130,76.984 24.800,76.675 24.800 C 76.606 24.800,76.021 25.385,75.375 26.100 M65.800 42.800 C 65.646 43.710,65.604 44.538,65.707 44.640 C 65.810 44.743,66.013 44.077,66.160 43.160 C 66.307 42.243,66.348 41.415,66.253 41.320 C 66.158 41.224,65.954 41.890,65.800 42.800 M65.687 356.000 C 65.683 356.550,65.824 357.450,66.000 358.000 C 66.431 359.344,66.431 357.892,66.000 356.200 C 65.726 355.122,65.694 355.102,65.687 356.000 M72.394 371.003 C 73.987 372.921,74.121 373.045,73.686 372.196 C 73.459 371.753,72.852 371.034,72.337 370.598 C 71.433 369.834,71.435 369.848,72.394 371.003 M74.400 372.925 C 74.400 372.994,74.985 373.579,75.700 374.225 L 77.000 375.400 75.825 374.100 C 74.730 372.888,74.400 372.616,74.400 372.925 M92.600 380.800 L 90.600 381.074 92.476 381.137 C 93.508 381.172,94.464 381.020,94.600 380.800 C 94.736 380.580,94.792 380.428,94.724 380.463 C 94.656 380.497,93.700 380.649,92.600 380.800 " stroke="none" fill="#5477d8" fill-rule="evenodd"></path><path d="M262.400 15.741 C 262.400 15.942,264.445 17.995,266.039 19.394 C 266.788 20.050,266.326 19.465,265.013 18.094 C 262.743 15.723,262.400 15.414,262.400 15.741 M90.138 18.705 C 89.884 18.867,121.642 18.953,160.712 18.896 C 217.508 18.812,231.819 18.892,232.104 19.296 C 232.371 19.673,232.420 19.649,232.297 19.200 C 232.120 18.550,91.151 18.059,90.138 18.705 M86.190 19.616 C 86.021 19.889,86.323 19.938,87.066 19.760 C 88.599 19.392,88.744 19.200,87.490 19.200 C 86.917 19.200,86.332 19.387,86.190 19.616 M74.860 25.851 C 74.343 26.402,73.996 26.929,74.089 27.022 C 74.182 27.115,74.774 26.654,75.404 25.996 C 76.034 25.338,76.381 24.811,76.175 24.824 C 75.969 24.838,75.377 25.300,74.860 25.851 M72.189 28.515 C 71.362 29.492,69.951 31.600,70.125 31.600 C 70.223 31.600,70.967 30.790,71.779 29.800 C 72.590 28.810,73.107 28.007,72.927 28.015 C 72.747 28.024,72.415 28.249,72.189 28.515 M69.415 32.376 C 68.335 34.123,66.804 37.407,66.821 37.941 C 66.832 38.303,67.135 37.880,67.494 37.000 C 67.854 36.120,68.570 34.635,69.087 33.700 C 69.876 32.271,70.142 31.200,69.415 32.376 M66.267 39.067 C 66.120 39.213,66.015 39.798,66.034 40.367 C 66.068 41.381,66.075 41.379,66.421 40.220 C 66.785 39.003,66.731 38.602,66.267 39.067 M65.452 42.500 C 65.117 43.751,65.192 356.839,65.528 357.685 C 65.678 358.062,65.800 287.097,65.800 199.985 C 65.800 112.873,65.776 41.600,65.747 41.600 C 65.717 41.600,65.585 42.005,65.452 42.500 M354.997 232.600 C 354.997 298.820,355.044 325.970,355.100 292.932 C 355.156 259.895,355.156 205.715,355.100 172.532 C 355.044 139.350,354.997 166.380,354.997 232.600 M292.329 122.700 C 300.100 122.761,312.700 122.761,320.329 122.700 C 327.958 122.639,321.600 122.589,306.200 122.589 C 290.800 122.589,284.558 122.639,292.329 122.700 M66.000 359.710 C 66.000 360.283,66.187 360.868,66.416 361.010 C 66.689 361.179,66.738 360.877,66.560 360.134 C 66.192 358.601,66.000 358.456,66.000 359.710 M66.832 361.925 C 66.793 362.561,69.147 367.520,69.629 367.818 C 69.817 367.934,69.373 366.808,68.642 365.315 C 67.910 363.822,67.211 362.330,67.088 362.000 C 66.933 361.587,66.853 361.564,66.832 361.925 M70.849 369.600 C 71.918 371.219,72.774 372.159,72.986 371.947 C 73.068 371.866,72.412 370.989,71.530 370.000 C 70.183 368.489,70.074 368.425,70.849 369.600 M74.000 372.943 C 74.000 373.356,76.012 375.322,76.220 375.113 C 76.314 375.019,75.854 374.426,75.196 373.796 C 74.538 373.166,74.000 372.782,74.000 372.943 M78.624 376.987 C 79.051 377.310,79.580 377.575,79.800 377.575 C 80.020 377.575,79.851 377.310,79.424 376.987 C 78.996 376.664,78.467 376.400,78.247 376.400 C 78.027 376.400,78.196 376.664,78.624 376.987 M86.190 380.384 C 86.332 380.613,86.917 380.800,87.490 380.800 C 88.744 380.800,88.599 380.608,87.066 380.240 C 86.323 380.062,86.021 380.111,86.190 380.384 M90.109 381.276 C 90.739 381.676,94.295 381.695,94.535 381.300 C 94.636 381.135,93.570 380.992,92.167 380.982 C 90.765 380.972,89.838 381.104,90.109 381.276 " stroke="none" fill="#204ccc" fill-rule="evenodd"></path></g></svg>